/* XPM */
static char * pixmap_myfault[] = {
"70 70 257 2",
"  	c None",
". 	c None",
"+ 	c #080808",
"@ 	c #101010",
"# 	c #181818",
"$ 	c #212121",
"% 	c #292929",
"& 	c #313131",
"* 	c #393939",
"= 	c #424242",
"- 	c #4A4A4A",
"; 	c #525252",
"> 	c #5A5A5A",
", 	c #636363",
"' 	c #6B6B6B",
") 	c #737373",
"! 	c #7B7B7B",
"~ 	c #848484",
"{ 	c #8C8C8C",
"] 	c #949494",
"^ 	c #9C9C9C",
"/ 	c #A5A5A5",
"( 	c #ADADAD",
"_ 	c #B5B5B5",
": 	c #BDBDBD",
"< 	c #C6C6C6",
"[ 	c #CECECE",
"} 	c #D6D6D6",
"| 	c #DEDEDE",
"1 	c #E7E7E7",
"2 	c #EFEFEF",
"3 	c #F7F7F7",
"4 	c #D6CECE",
"5 	c #BDB5B5",
"6 	c #ADA5A5",
"7 	c #B5ADAD",
"8 	c #948C8C",
"9 	c #9C9494",
"0 	c #A59C9C",
"a 	c #8C8484",
"b 	c #7B7373",
"c 	c #847B7B",
"d 	c #6B6363",
"e 	c #5A5252",
"f 	c #635A5A",
"g 	c #E7DED6",
"h 	c #C6BDB5",
"i 	c #635A52",
"j 	c #423931",
"k 	c #DED6CE",
"l 	c #B5ADA5",
"m 	c #9C948C",
"n 	c #948C84",
"o 	c #7B736B",
"p 	c #736B63",
"q 	c #5A524A",
"r 	c #524A42",
"s 	c #EFE7DE",
"t 	c #ADA59C",
"u 	c #4A4239",
"v 	c #A59C8C",
"w 	c #635A4A",
"x 	c #FFF7E7",
"y 	c #BDB5A5",
"z 	c #7B7363",
"A 	c #5A5242",
"B 	c #8C7B5A",
"C 	c #D6CEBD",
"D 	c #B5AD9C",
"E 	c #ADA594",
"F 	c #948C7B",
"G 	c #6B6352",
"H 	c #B5A57B",
"I 	c #AD9C73",
"J 	c #D6BD7B",
"K 	c #A59C84",
"L 	c #635A42",
"M 	c #A59463",
"N 	c #E7CE84",
"O 	c #D6BD73",
"P 	c #FFF7DE",
"Q 	c #EFE7CE",
"R 	c #D6CEB5",
"S 	c #B5AD94",
"T 	c #948C73",
"U 	c #8C846B",
"V 	c #7B735A",
"W 	c #736B52",
"X 	c #6B634A",
"Y 	c #D6C694",
"Z 	c #EFDEA5",
"` 	c #CEBD84",
" .	c #C6B57B",
"..	c #9C8C5A",
"+.	c #AD9C63",
"@.	c #A5945A",
"#.	c #A59C7B",
"$.	c #847B5A",
"%.	c #BDAD73",
"&.	c #B5A56B",
"*.	c #FFE78C",
"=.	c #9C8C52",
"-.	c #AD9C5A",
";.	c #A59452",
">.	c #BDA552",
",.	c #C6AD52",
"'.	c #EFE7C6",
").	c #CEC6A5",
"!.	c #BDB594",
"~.	c #E7DEB5",
"{.	c #B5AD8C",
"].	c #ADA584",
"^.	c #C6BD94",
"/.	c #9C9473",
"(.	c #948C6B",
"_.	c #8C8463",
":.	c #FFEFAD",
"<.	c #7B7352",
"[.	c #EFDE94",
"}.	c #BDAD6B",
"|.	c #CEBD73",
"1.	c #F7DE73",
"2.	c #EFD66B",
"3.	c #DEC65A",
"4.	c #CEB552",
"5.	c #D6BD52",
"6.	c #CEB54A",
"7.	c #E7C642",
"8.	c #EFCE42",
"9.	c #E7C639",
"0.	c #EFCE39",
"a.	c #D6CEA5",
"b.	c #CEC69C",
"c.	c #948C63",
"d.	c #8C845A",
"e.	c #FFEF9C",
"f.	c #F7E794",
"g.	c #DECE84",
"h.	c #DECE7B",
"i.	c #BDAD63",
"j.	c #C6B563",
"k.	c #B5A55A",
"l.	c #BDAD5A",
"m.	c #C6B55A",
"n.	c #F7DE6B",
"o.	c #E7CE5A",
"p.	c #DEC652",
"q.	c #E7CE52",
"r.	c #D6BD4A",
"s.	c #EFD652",
"t.	c #DEC64A",
"u.	c #E7CE4A",
"v.	c #D6BD42",
"w.	c #FFDE39",
"x.	c #EFCE31",
"y.	c #EFCE29",
"z.	c #F7D629",
"A.	c #BDB584",
"B.	c #B5AD7B",
"C.	c #ADA573",
"D.	c #A59C6B",
"E.	c #9C9463",
"F.	c #948C5A",
"G.	c #A59C63",
"H.	c #8C8452",
"I.	c #BDAD52",
"J.	c #CEBD5A",
"K.	c #C6B552",
"L.	c #CEBD52",
"M.	c #FFE763",
"N.	c #EFD64A",
"O.	c #DEC642",
"P.	c #DEC639",
"Q.	c #E7CE39",
"R.	c #EFD639",
"S.	c #DEC631",
"T.	c #E7CE31",
"U.	c #FFDE21",
"V.	c #EFCE18",
"W.	c #F7D618",
"X.	c #FFDE18",
"Y.	c #EFE7AD",
"Z.	c #CEC68C",
"`.	c #ADA56B",
" +	c #9C945A",
".+	c #A59C5A",
"++	c #D6C652",
"@+	c #CEBD4A",
"#+	c #D6C64A",
"$+	c #CEBD42",
"%+	c #EFD631",
"&+	c #F7DE31",
"*+	c #E7CE29",
"=+	c #F7DE29",
"-+	c #E7CE21",
";+	c #EFD621",
">+	c #F7DE21",
",+	c #EFD610",
"'+	c #ADA563",
")+	c #ADA55A",
"!+	c #ADA552",
"~+	c #F7DE10",
"{+	c #EFD600",
"]+	c #F7DE00",
"^+	c #EFEFE7",
"/+	c #FFFFF7",
"(+	c #CECEC6",
"_+	c #D6D6CE",
":+	c #BDBDB5",
"<+	c #94948C",
"[+	c #84847B",
"}+	c #6B6B63",
"|+	c #5A5A52",
"1+	c #B5B5A5",
"2+	c #63635A",
"3+	c #ADAD9C",
"4+	c #4A4A42",
"5+	c #8C8C7B",
"6+	c #848473",
"7+	c #BDBDA5",
"8+	c #7B7B6B",
"9+	c #424239",
"0+	c #F7F7D6",
"a+	c #9C9C84",
"b+	c #6B6B5A",
"c+	c #313129",
"d+	c #292921",
"e+	c #525242",
"f+	c #A5A584",
"g+	c #6B6B52",
"h+	c #63634A",
"i+	c #181810",
"j+	c #CED6D6",
"k+	c #ADB5B5",
"l+	c #BDC6C6",
"m+	c #8C9494",
"n+	c #949C9C",
"o+	c #9CA5A5",
"p+	c #CECED6",
"q+	c #B5B5BD",
"r+	c #A5A5AD",
"s+	c #BDBDC6",
"t+	c #8C8C94",
"u+	c #9C9CA5",
"v+	c #73737B",
"w+	c #7B7B84",
"x+	c #BDBDCE",
"y+	c #5A5A63",
"z+	c #CEC6CE",
"A+	c #DED6DE",
"B+	c #E7DEE7",
"C+	c #B5ADB5",
"D+	c #C6BDC6",
"E+	c #9C949C",
"F+	c #8C848C",
"G+	c #7B737B",
"H+	c #000000",
". . . . . . . . . . . . . . . . . . . . . . . . . . . 3 . . . . . . . . . . . . . . . . . . . . . . . . . . . . . . . . . . . . . . . . . . ",
". . . . . . . . . . . . . . . . . . . . . . . . . ( _.]+=.s 3 . . . . . . . . . . . . . . . . . . . . . . . . . . . . . . . . . . . . . . . ",
". . . . . . . . . . . . . . . . . . . . . . . E N.P.O.5.>+W.]+H . . . . . . . . . . . . . . . . . . . . . . . . . . . . . . . . . . . . . . ",
". . . . . . . . . . . . . . . . . . . . . . C.]+W.$.]+m.>+>+>+]+5+. . . . . . . . . . . . . . . . . . . . . . . . . . . . . . . . . . . . . ",
". . . . . . . . . . . . . . . . . . . . .  .W.U.W.@.5.]+>+>+>+>+v.2 . . . . . . . . . . . . . . . . . . . . . . . . . . . . . . . . . . . . ",
". . . . . . . . . . . . . . . . . . . . . ]+>+>+l.k.k.U.>+U.z.@+K.r.[ . . . . . . . . . . . . . . . . . . . . . . . . . . . . . . . . . . . ",
". . . . . . . . . . . . . . . . . . . . (+z.>+U.F.]+r.>+>+>+U.7.7.l.].. . . . . . . . . . . . . . . . . . . . . . . . . . . . . . . . . . . ",
". . . . . . . . . . . . . . . . . . . . g+W.>+W.k.]+7.>+>+>+U.W.r.@+F.. . . . . . . . . . . . . . . . . . . . . . . . . . . . . . . . . . . ",
". . . . . . . . . . . . . . . . . . . . H.W.U.>+W.>+W.>+U.>+>+U.t.l.V . . . . . . . . . . . . . . . . . . . . . . . . . . . . . . . . . . . ",
". . . . . . . . . . . . . . . . . . . . K.O.>+>+>+>+>+>+>+>+>+W.T.-...3 . . . . . . . . . . . . . . . . . . . . . . . . . . . . . . . . . . ",
". . . . . . . . . . . . . . . . . . . . <.V 0.]+~+U.U.>+]+z.J.-.]+$.H+| . . . . . . . . . . . . . . . . . . . . . . . . . . . . . . . . . . ",
". . . . . . . . . . . . . . . . . . . H+H+W.>+@.V ~+k...k.y.~+]+H+H+H+< . . . . . . . . . . . . . . . . . . . . . . . . . . . . . . . . . . ",
". . . . . . . . . . . . . . . . . . . H+H+$+;+]+]+]+]+~+>+]+$.$ H+H+H+^ . . . . . . . . . . . . . . . . . . . . . . . . . . . . . . . . . . ",
". . . . . . . . . . . . . . . . . . . H+H+. . A+= H++ 2+D _ . @ H+H+H+_ . . . . . . . . . . . . . . . . . . . . . . . . . . . . . . . . . . ",
". . . . . . . . . . . . . . . . . . . . . H+$ . $ H+H+. ) ; ^ / H+H+H+_ . . . . . . . . . . . . . . . . . . . . . . . . . . . . . . . . . . ",
". . . . . . . . . . . . . . . . . . . . . H+^ } $ ^ H+. H+H+, [ H+H+H+( . . . . . . . . . . . . . . . . . . . . . . . . . . . . . . . . . . ",
". . . . . . . . . . . . . . . . . . . . H+H+H+2+5.O.V _ H+H+^ { H+H+H+^ . . . . . . . . . . . . . . . . . . . . . . . . . . . . . . . . . . ",
". . . . . . . . . . . . . . . . . . . ( H+< e+@+W.W.I.;+H+H+. H+H+H+H+. . . . . . . . . . . . . . . . . . . . . . . . . . . . . . . . . . . ",
". . . . . . . . . . . . . . . . . . . < H+q ]+>+>+>+>+U.]+]+A H+H+H+H+. . . . . . . . . . . . . . . . . . . . . . . . . . . . . . . . . . . ",
". . . . . . . . . . . . . . . . . . . 3 H+]+>+>+>+>+>+>+>+>+]+$.H+H+H+H+. . . . . . . . . . . . . . . . . . . . . . . . . . . . . . . . . . ",
". . . . . . . . . . . . . . . . . . . . H.U.>+>+>+U.U.>+>+z.;+$.@ H+H+H+. 2 . . . . . . . . . . . . . . . . . . . . . . . . . . . . . . . . ",
". . . . . . . . . . . . . . . . . . . . H+6.y.]+>+>+>+W.-.]+-.% ) # @ H+. . . . . . . . . . . . . . . . . . . . . . . . . . . . . . . . . . ",
". . . . . . . . . . . . . . . . . . . _ H+^ ]+..l.m.@.V l.4+^ ' H+H+# H+H+. . . . . . . . . . . . . . . . . . . . . . . . . . . . . . . . . ",
". . . . . . . . . . . . . . . . . . . . H+1 ~.!+]+]+l.!+Q } [ [ H+H+^ H+. | . . . . . . . . . . . . . . . . . . . . . . . . . . . . . . . . ",
". . . . . . . . . . . . . . . . . . . H+. . . /+C l a.x . . 3 s+H+H+# H+. . . . . . . . . . . . . . . . . . . . . . . . . . . . . . . . . . ",
". . . . . . . . . . . . . . . . . . H+H+[ . . . . . . . . . . 2 2 . H+H+. H+3 . . . . . . . . . . . . . . . . . . . . . . . . . . . . . . . ",
". . . . . . . . . . . . . . . . . . . . . . . . . . . . . . . . . . H+H+. H+. . . . . . . . . . . . . . . . . . . . . . . . . . . . . . . . ",
". . . . . . . . . . . . . . . . ^ H+. 2 . . . . . . . . . . . . . . H+H+H+H+. . 9 / } | 2 3 . . . . . . . . . . . . . . . . . . . . . . . . ",
". . . . . . . . . . . . . . . H+H+H+_ . /+. . . . . . 1 / 1 . . . . : H+. H+H+H+H+: / ^ ( q+< [ z+< / ^ ^ ( ( } 3 . . . . . . . . . . . . . ",
". . . . . . . . . . . . . . . H+H+H+2 . . . . . . . / . . . : . . . . H+. . . . H+. . . . . . . | < . n+u+. q+< s+/ . . ^ < 1 . . . . . . . ",
". . . . . . . . . . . . . . H+H+# H+. . . . . . . . : | 1 | . ^ . . . . . ^ H+H+H+H+. . . . . . . . . . . . . . 1 7 _ 6 / z+< 1 . . . . . . ",
". . . . . . . . . . . . . . H++ H+H+( . . . . . . _ [ / . / . . _ : / ^ . H+/ . H+H+. . . . . . . . . . . . . . . . . . . :+< | . . . . . . ",
". . . . . . . . . . . . . . H+H+H+. ( [ . . . . . . . . . _ . . 1 2 2 ( ( . . . H+H+H+} . ( _ 2 3 : . [ 2 / 1 . . . . . . [ q+| . . . . . . ",
". . . . . . . . . . . . . . . H+H+. . . . . . . . . . . . . . ( < | 2 . . . [ . . H+H+@ 3 1 < _ ( } . : 2 < 1 . . . . . . 1 u+[ . . . . . . ",
". . . . . . . . . . . . 3 H+( H+} . . . . . . . . . _ . . 2 3 ( < . . / ( _ _ . . H+H+H+. . . . . _ . . _ . [ . . . . . . 3 n+: . . . . . . ",
". . . . . . . . . . . . H+H+H+_ } . . . . . . . . . _ . . . [ | . . . : ( H+. H+. H+H+H+c . < ( _ . : . 1 3 : 1 . . . . . [ n+q+. . . . . . ",
". . . . . . . . . . . . H+! H+_ [ . . . . . . . . . . 2 . ( . . . . . 1 . H+. H+. H+H+H+. . < z+z+[ s+( < ~ [ z+< : u+. . : / < . . . . . . ",
". . . . . . . . . . } H+H+{ 3 . . . . . . . . . . . . . . . . . . . . < ( H+. . . H+H+H+. : o+. . . . . m+s+z+[ [ p+p+p+[ r+m+q+s+( / / 3 . ",
". . . . . . . . . . . H+) H+. . . . . . . . . . . . . . . . . . . . . | | . . H+. H+H+H+. [ [ [ [ [ z+[ [ _ / ~ v+~ r+q+z+q+' _ z+z+. . . . ",
". . . . . . . . . | H+H+( H+. . . . } . . . . . . . . . . . . . . . . | . H+. H+. H+H+H+c z+p+[ p+[ p+p+[ [ [ [ [ z+p+[ ( ( : [ , F+F+p+. . ",
". . . . . . . . . . H+H+) H+2 . . . . . . . . . . . . . . . . . . . . [ _ # H+H+. H+H+H+; v+m+r+s+r+n+k+[ [ [ [ [ z+u+< s+[ C+m+z+k+_ [ . . ",
". . . . . . . . . . H+H+& H+: . . . . . . . . _ . . . . . . . . . . . [ } * H+H+. H+H+H+o+( / r+^ ( , ! F+) > k+r+/ s+) / z+_ r+] [ q+< . . ",
". . . . . . . . . : H+H+$ H+[ 2 . . . . . . . . . . . [ . . . . . . . [ 2 H+H+H+. H+H+H+z+[ [ z+z+p+[ p+z+[ [ p+z+( / o+z+) _ < _ z+- r+. . ",
". . . . . . . . . . H+c+H+H+[ _ . . . . . 3 . . . . . . . . . . . . . . . H+H+. . . H+; n+/ q+z+z+[ [ [ z+[ [ p+z+^ / z+r+D+[ ] s+~ [ _ . . ",
". . . . . . . . 0 !+]+z.l.9+/ 1 } . . . . . . . . . . . . . . . . . . . . H+. . H+H+} : z+z+z+z+s+/ ] n+k+: z+[ z+n+8 ~ ~ ) F+: _ ^ [ n+. . ",
". . . . . . g }.@.~+>+O.m.l.. _ 2 . . 2 . 1 . . . . . . . . . . . . . ^ E.* H+H+H+H+H+* z+z+z+z+[ / m+s+s+] u+/ { / D+: < z+n+! < [ u+( . . ",
". . . . . W K.W.W.U.z.K.K.#+H+. _ . . . . . . . . . . . . . . . . . . *.]++ H+H+H+H+H+H+{ z+z+[ z+q+z+z+/ [ [ p+[ { z+o+[ ( : [ G+n+k+( . . ",
". . . . E ~+>+>+U.>+>+]+v.5.X H+H+. . . . . . . . . . . . . . . . . . ]+W.& H+H+H+H+H+G...<+z+p+p+z+[ p+[ [ [ z+p+n+] q+( ' / n+] : { F+. . ",
". . . | w.>+>+>+>+U.>+>+0.4.v.H+H+H+. . . . . . . . . . . . . . . . . ]+>+l.H+H+H+H+2+@.k.T ( n+n+( [ [ z+[ [ p+z+^ _ ( u+/ / [ D+z+: ^ . . ",
". . . | 6.>+>+>+>+>+>+>+U.;+L.t.H+H+H+H+. . . . . . . . . . . . . . . ]+>+U.`.H+$ 6+9.~+W.!+u+z+[ p+p+z+[ [ < _ ] r+r+z+! [ [ [ D+s+( ( . . ",
". . . 3 b.U.>+>+U.>+>+>+>+>+l.4.$ H+H+H+_ . . . 3 . . . . . . . . . . 4.U.>+W.]+]+>+>+U.>+0.].[ p+z+z+[ [ [ [ p+[ m+^ ^ [ z+[ k+_ r+/ t+^ 2 ",
". . . . :+U.U.U.>+>+>+>+>+>+K.-.$.H+H+H+/ . . . . . . . . . . . . . _ I.>+>+>+>+>+>+>+>+U.X.<.z+n+( n+[ [ [ [ z+z+^ : ( k+[ z+r+_ : . . . : ",
". . . . v W.>+>+U.>+>+>+>+U.]+l.m.@ H+. . . . . . . . . . . . . . 1 H+k.>+>+U.>+U.>+>+>+>+>+]+q z+( z+] [ n+z+p+z+n+( _ : [ [ < . . / 3 2 . ",
". . . | @.U.>+U.U.>+>+>+U.>+W.>.#+$.{ [ 1 . . . . . . . . . . . 2 H+H+T.W.U.U.>+U.>+>+>+>+>+U.W.~ < ] [ ] [ s+z+[ E+/ / ] k+. / 2 . . . . . ",
". . . m W.X.>+>+>+>+>+U.>+>+>+z.Q.l.e [ < 2 . . . . . . . . . . H+H++ Q.U.>+>+>+>+>+>+>+>+>+>+U.c r+z+/ z+: / [ [ n+D+< 9 . _ 1 . . . . . . ",
". . . c++.4.]+>+>+>+>+>+>+z.U.z.]+-. +H+_ : | . . . . . . . H+H+H+H+' y.>+>+>+>+>+>+>+>+>+>+>+~+4+c . . / ^ k+q+l+r+. . ( 2 . . . . . . . . ",
". . . | F.K.m.W.>+>+>+U.>+>+>+>+~+k.,.H+H+H+> } . . 3 _ H+H+H+H+H++ j.U.>+>+>+U.>+>+>+%+z.]+T.).. . . . . . 3 . . . . . . . . . . . . . . . ",
". . . . / |.K.k.W.>+>+>+>+U.U.>+W.d.g+H+H+H+H+H+H+H+H+H+H+H+H+H+H+i+,.>+>+>+>+>+W.7.m.F.!+V 0+. . . . . . . . . . . . . . . . . . . . . . . ",
". . . . . 3 ( &.~+>+U.>+>+>+>+~+y.l.W H+& H+H+H+H+H+H+H+H+. . . . . l.>+U.>+W.l.I.,.j m . . . . . . . . . . . . . . . . . . . . . . . . . . ",
". . . . . . . | .  .z.]+U.>+W. +y.k.g+% H+. . . . H+H+. . _ < q+u+. m.y.>+>+z.7.m.`.{ : . . . . . . . . . . . . . . . . . . . . . . . . . . ",
". . . . . . . . . . 3 u+{.]+]+t.7.6.U ) a . ( < / } < _ . 3 . . 2 < W ]+>+U.l.F.o / [ / 1 . . . . . . . . . . . . . . . . . . . . . . . . . ",
". . . . . . . . . . . . . < a v o . w+2 . . . . . . . . . . . . . 2 3 d.O.9.<.. / _ . : [ : 3 . . . . . . . . . . . . . . . . . . . . . . . ",
". . . . . . . . . . . . . . . . . . . . . . . . . . . . . . . . . . . . /+3 1 1 2 2 . . . . . . . . . . . . . . . . . . . . . . . . . . . . ",
". . . . . . . . . . . . . . . . . . . . . . . . . . . . . . . . . . . . . . . . . . . . . . . . . . . . . . . . . . . . . . . . . . . . . . ",
". . . . . . . . . . . . . . . . . . . . . . . . . . . . . . . . . . . . . . . . . . . . . . . . . . . . . . . . . . . . . . . . . . . . . . ",
". . . . . . . . . . . . . . . . . . . . . . . . . . . . . . . . . . . . . . . . . . . . . . . . . . . . . . . . . . . . . . . . . . . . . . ",
". . . . . . . . . . . . . . . . . . . . . . . . . . . . . . . . . . . . . . . . . . . . . . . . . . . . . . . . . . . . . . . . . . . . . . ",
". . . . . . . . . . . . . . . . . . . . . . . . . . . . . . . . . . . . . . . . . . . . . . . . . . . . . . . . . . . . . . . . . . . . . . ",
". . . . . . . . . . . . . . . . . . . . . . . . . . . . . . . . . . . . . . . . . . . . . . . . . . . . . . . . . . . . . . . . . . . . . . ",
". . . . . . . . . . . . . . . . . . . . . . . . . . . . . . . . . . . . . . . . . . . . . . . . . . . . . . . . . . . . . . . . . . . . . . "};
