/* XPM */
static char * pixmap_black[] = {
"20 20 3 1",
" 	c None",
"X	c #000000000000",
".	c #FFFFFFFFFFFF",
"       .....        ",
"     ..XXXXX..      ",
"   ..XXXXXXXXX..    ",
"  .XXXXXXXXXXXXX.   ",
"  .XXXXXXXXXXXXX.   ",
" .XXXXXXXXXXXXXXX.  ",
" .XXXXXXXXXXXXXXX.  ",
".XXXXXXXXXXXXXXXXX. ",
".XXXXXXXXXXXXXXXXX. ",
".XXXXXXXXXXXXXXXXX. ",
".XXXXXXXXXXXXXXXXX. ",
".XXXXXXXXXXXXXXXXX. ",
" .XXXXXXXXXXXXXXX.  ",
" .XXXXXXXXXXXXXXX.  ",
"  .XXXXXXXXXXXXX.   ",
"  .XXXXXXXXXXXXX.   ",
"   ..XXXXXXXXX..    ",
"     ..XXXXX..      ",
"       .....        ",
"                    "};
