/* XPM */
static char * pixmap_borderDD[] = {
"16 16 2 1",
" 	c none",
".	c #000000000000",
"                ",
"                ",
"                ",
"                ",
"                ",
" .............. ",
" .............. ",
"                ",
"                ",
" .............. ",
" .............. ",
"                ",
"                ",
"                ",
"                ",
"                "};
