/* XPM */
static char * pixmap_btlr[] = {
"16 16 2 1",
" 	c none",
".	c #000000000000",
"                ",
"                ",
"           .    ",
"          ...   ",
"    .    .....  ",
"    ..     .    ",
"    . .    .    ",
"    .  .   .    ",
"    .   .  .    ",
"    .    . .    ",
"    .     ..    ",
"    .      .    ",
"                ",
"                ",
"                ",
"                "};
