/* XPM */
static char * pixmap_conflict[] = {
"22 22 7 1",
" 	c None",
".	c #000000",
"+	c #F5EF99",
"@	c #FAF266",
"#	c #FDF443",
"$	c #FDF444",
"%	c #FFF537",
"   .....              ",
"   .++++....          ",
"   .+@@@@@@@......    ",
"   .+@##$$$$@@@@.     ",
"   ..@@@@@$%$@..      ",
"    ......@$@.        ",
"       ..@$@.         ",
"      .@@$@.          ",
"     .@$$@.....       ",
"     .@@@$@@@@.       ",
"     ....@$@..        ",
"        .@@.          ",
"       .@@.....       ",
"      ..@$@@@.        ",
"        .@$@.         ",
"         .@.          ",
"        .@@.          ",
"        .@..          ",
"       .@#@.          ",
"        .@.           ",
"        ..            ",
"        .             "};
