/* XPM */
static char * duplex_short_xpm[] = {
"27 31 5 1",
" 	c None",
".	c #808080",
"+	c #D8DCD8",
"@	c #F8FCF8",
"#	c #000000",
"       .........           ",
"      .+@@@@@@@+.          ",
"      .@@@@@@@@+@.         ",
"     .+@@@@@@@@####        ",
"     .@@@@@@##@@@+#        ",
"     .@@@@@###@@@+#        ",
"     .@@@@####@@@+#        ",
"     .@@@##@##@@@+#        ",
"     .@@@@@@##@@@+#        ",
"     .@@@@@@##@@@+#        ",
"     .@@@@@@##@@@+#        ",
"     .@@@@@@##@@@+#        ",
"     .+@@@@@##@@@+#        ",
"      .@@@@@@@@@@@.#       ",
"      ..+++++++++++.#      ",
"       ###############     ",
"      ..+++++++++++.#      ",
"      .@@@@@@@@@@@.#       ",
"     .@@@@@@@@@@@+#        ",
"     .@@@@####@@@+#        ",
"     .@@@######@@+#        ",
"     .@@@##@@##@@+#        ",
"     .@@@@@@@##@@+#        ",
"     .@@@@@@###@@+#        ",
"     .@@@@@###@@@+#        ",
"     .@@@@###@@@@+#        ",
"     .@@@###@@@@@+#        ",
"     .+@@######@@+#        ",
"      .@@@@@@@@@@@.#       ",
"      .++++++++++++#       ",
"       ##############      "};

