/* XPM */
static char * duplex_long_xpm[] = {
"27 31 6 1",
" 	c None",
".	c #808080",
"+	c #D8DCD8",
"@	c #F8FCF8",
"#	c #C0C0C0",
"$	c #000000",
"                           ",
"                           ",
"                           ",
"                           ",
"                           ",
"                           ",
"   ........     ........   ",
" ..+@@@@@@+.. ..#@@@@@@+.  ",
".+@@@@@@@@@@.$.@@@@@@@@+@. ",
".@@@@@@@@@@@#$+@@@@@@@@$$$$",
".@@@@@@@@@@@+$+@@@@@@@@@@+$",
".@@@@@$$@@@@+$+@@@$$$$@@@+$",
".@@@@$$$@@@@+$+@@$$$$$$@@+$",
".@@@$$$$@@@@+$+@@$$@@$$@@+$",
".@@$$@$$@@@@+$+@@@@@@$$@@+$",
".@@@@@$$@@@@+$+@@@@@$$$@@+$",
".@@@@@$$@@@@+$+@@@@$$$@@@+$",
".@@@@@$$@@@@+$+@@@$$$@@@@+$",
".@@@@@$$@@@@+$+@@$$$@@@@@+$",
".@@@@@$$@@@@+$+@@$$$$$$@@+$",
".@@@@@@@@@@@+$+@@@@@@@@@@+$",
".@+++++++++@+$++++++++++@+$",
".++$$$$$$$$.+$+.$$$$$$$$.+$",
".$$        $.$.$        $$$",
"$           $$$           $",
"                           ",
"                           ",
"                           ",
"                           ",
"                           ",
"                           "};

