/* XPM */
static char * pixmap_imgpos1[] = {
"10 15 75 1",
" 	c None",
".	c #FFFFFF",
"+	c #ECECEC",
"@	c #797979",
"#	c #707070",
"$	c #D9D9D9",
"%	c #868686",
"&	c #040404",
"*	c #1D1D1D",
"=	c #494949",
"-	c #949596",
";	c #74694F",
">	c #8B887E",
",	c #343434",
"'	c #B7AC93",
")	c #EEB720",
"!	c #E7B832",
"~	c #27241D",
"{	c #F3F3F3",
"]	c #FCFCFC",
"^	c #9B9C9C",
"/	c #E0D0A9",
"(	c #EFE9D9",
"_	c #6B6B6B",
":	c #878787",
"<	c #959595",
"[	c #B2B2B2",
"}	c #F9F9F9",
"|	c #F8F8F8",
"1	c #B9B9B9",
"2	c #121212",
"3	c #CACACA",
"4	c #F4F4F4",
"5	c #444444",
"6	c #FDFDFD",
"7	c #3F3F3F",
"8	c #555555",
"9	c #C5C5C5",
"0	c #5A5B5B",
"a	c #FFFCF4",
"b	c #EFCF79",
"c	c #C09D1F",
"d	c #D1D1D1",
"e	c #FBFBFB",
"f	c #F2E6CA",
"g	c #584713",
"h	c #685418",
"i	c #FFFDF5",
"j	c #FEDB74",
"k	c #FFBE00",
"l	c #FFC000",
"m	c #73601E",
"n	c #F2F2F2",
"o	c #D6C299",
"p	c #F5B800",
"q	c #FCBC01",
"r	c #FFE28C",
"s	c #F3CF74",
"t	c #F7B700",
"u	c #FEBE00",
"v	c #E5AB19",
"w	c #999896",
"x	c #757575",
"y	c #74550E",
"z	c #FBC115",
"A	c #FDE6A1",
"B	c #FDFBF6",
"C	c #F3E4C3",
"D	c #F0CF82",
"E	c #E5C070",
"F	c #D3D2D1",
"G	c #E0E0E0",
"H	c #DFCEAC",
"I	c #DDB662",
"J	c #F8F0DD",
"..........",
"...+@#$...",
"...%&*=...",
"...-;>,...",
"...')!~{..",
"..]^/(_:..",
"..<[}|123.",
".45]6.]78.",
".9#.}..0*]",
"abcde.fghi",
"jklmn.opqr",
"stuvwxyuzA",
"BCDEFGHIJ.",
"..........",
".........."};
