/* XPM */
static char * landscape_xpm[] = {
"31 27 5 1",
" 	c None",
".	c #000000",
"+	c #808080",
"@	c #D8DCD8",
"#	c #F8FCF8",
"                               ",
"                               ",
"                               ",
"                               ",
"                               ",
"                               ",
"       ....................    ",
"      +.@@@@@@@@@@@@@@@@@@.    ",
"     +#.@################@.    ",
"    +@@.#################@.    ",
"    +###########..#######@.    ",
"    +##########...#######@.    ",
"    +#########....#######@.    ",
"    +########..#..#######@.    ",
"    +###########..#######@.    ",
"    +###########..#######@.    ",
"    +###########..#######@.    ",
"    +###########..#######@.    ",
"    +###########..#######@.    ",
"    +####################@.    ",
"    +@@@@@@@@@@@@@@@@@@@@@.    ",
"    ++++++++++++++++++++++.    ",
"                               ",
"                               ",
"                               ",
"                               ",
"                               "};
