/* XPM */
static char *logo2_k[] = {
/* width height ncolors chars_per_pixel */
"104 142 4 1",
/* colors */
"  c #00FFFF",
". c #FF0000",
"X c none",
"o c #0000FF",
/* pixels */
"XXXXXXXXXXXXXXXXXXXXXXXXXXXXXXXXXXXXXXXXXXXXXXXXXXXXXXXXXXXXXXXXXXXXXXXXXXXXXXXXXXXXXXXXXXXXXXXXXXXXXXXX",
"XXXXXXXXXXXXXXXXXXXXXXXXXXXXXXXXXXXXXXXXXXXXXXXXXXXXXXXXXXXXXXXXXXXXXXXXXXXXXXXXXXXXXXXXXXXXXXXXXXXXXXXX",
"XXXXXXXXXXXXXXXXXXXXXXXXXXXXXXXXXXXXXXXXXXXXXXXXXXXXXXXXXXXXXXXXXXXXXXXXXXXXXXXXXXXXXXXXXXXXXXXXXXXXXXXX",
"XXXXXXXXXXXXXXXXXXXXXXXXXXXXXXXXXXXXXXXXXXXXXXXXXXXXXXXXXXXXXXXXXXXXXXXXXXXXXXXXXXXXXXXXXXXXXXXXXXXXXXXX",
"XXXXXXXXXXXXXXXXXXXXXXXXXXXXXXXXXXXXXXXXXXXXXXXXXXXXXXXXXXXXXXXXXXXXXXXXXXXXXXXXXXXXXXXXXXXXXXXXXXXXXXXX",
"XXXXXXXXXXXXXXXXXXXXXXXXXXXXXXXXXXXXXXXXXXXXXXXXXXXXXXXXXXXXXXXXXXXXXXXXXXXXXXXXXXXXXXXXXXXXXXXXXXXXXXXX",
"XXXXXXXXXXXXXXXXXXXXXXXXXXXXXXXXXXXXXXXXXXXXXXXXXXXXXXXXXXXXXXXXXXXXXXXXXXXXXXXXXXXXXXXXXXXXXXXXXXXXXXXX",
"XXXXXXXXXXXXXXXXXXXXXXXXXXXXXXXXXXXXXXXXXXXXXXXXXXXXXXXXXXXXXXXXXXXXXXXXXXXXXXXXXXXXXXXXXXXXXXXXXXXXXXXX",
"XXXXXXXXXXXXXXXXXXXXXXXXXXXXXXXXXXXXXXXXXXXXXXXXXXXXXXXXXXXXXXXXXXXXXXXXXXXXXXXXXXXXXXXXXXXXXXXXXXXXXXXX",
"XXXXXXXXXXXXXXXXXXXXXXXXXXXXXXXXXXXXXXXXXXXXXXXXXXXXXXXXXXXXXXXXXXXXXXXXXXXXXXXXXXXXXXXXXXXXXXXXXXXXXXXX",
"XXXXXXXXXXXX     XXXX     XXXXX     XXXXX     XXXX     XXXXX     XXXXX     XXXX     XXXXX     XXXXXXXXXX",
"XXXXXXXXXXX       XXX      XXX       XXX      XXXX      XXX       XXX      XXX       XXX       XXXXXXXXX",
"XXXXXXXXXXX       XXX      XXX       XXX       XX       XXX       XXX      XXX       XXX       XXXXXXXXX",
"XXXXXXXXXXX       XXX      XXX       XXX       XX       XXX       XXX      XXX       XXX       XXXXXXXXX",
"XXXXXXXXXXX      XXXX      XXX       XXX      XXXX      XXX       XXX      XXX       XXX      XXXXXXXXXX",
"XXXXXXXXXXXX     XXXX     XXXXX     XXXXX     XXXX     XXXXX     XXXXX     XXXX     XXXXX     XXXXXXXXXX",
"XXXXXXXXXXXXXXXXXXXXXXXXXXXXXXXXXXXXXXXXXXXXXXXXXXXXXXXXXXXXXXXXXXXXXXXXXXXXXXXXXXXXXXXXXXXXXXXXXXXXXXXX",
"XXXXXXXXXXXXXXXXXXXXXXXXXXXXXXXXXXXXXXXXXXXXXXXXXXXXXXXXXXXXXXXXXXXXXXXXXXXXXXXXXXXXXXXXXXXXXXXXXXXXXXXX",
"XXXXXXXXXXXXXXXXXXXXXXXXXXXXXXXXXXXXXXXXXXXXXXXXXXXXXXXXXXXXXXXXXXXXXXXXXXXXXXXXXXXXXXXXXXXXXXXXXXXXXXXX",
"XXXXXXXXXXXXX   XXXXXXooooXXXXXXoooXXXXXXX...XXXXXX...XXXXXXX   XXXXXX    XXXXXX   XXXXXXX   XXXXXXXXXXX",
"XXXXXXXXXXXX     XXXXooooooXXXXoooooXXXX......XXXX......XXXX     XXXX      XXXX     XXXXX     XXXXXXXXXX",
"XXXXXXXXXXX       XXXooooooXXXoooooooXXX......XXX.......XXX       XXX      XXX       XXX       XXXXXXXXX",
"XXXXXXXXXXX       XXoooooooXXXoooooooXXX.......XX.......XXX       XXX      XXX       XXX       XXXXXXXXX",
"XXXXXXXXXXX       XXXooooooXXXoooooooXXX......XXX.......XXX       XXX      XXX       XXX       XXXXXXXXX",
"XXXXXXXXXXX      XXXXooooooXXXXoooooXXXX......XXXX......XXXX     XXXX      XXXX      XXX      XXXXXXXXXX",
"XXXXXXXXXXXX    XXXXXXooooXXXXXXoooXXXXXX....XXXXXX....XXXXXX   XXXXXX    XXXXXX    XXXXX    XXXXXXXXXXX",
"XXXXXXXXXXXXXXXXXXXXXXXXXXXXXXXXXXXXXXXXXXXXXXXXXXXXXXXXXXXXXXXXXXXXXXXXXXXXXXXXXXXXXXXXXXXXXXXXXXXXXXXX",
"XXXXXXXXXXXXXXXXXXXXXXXXXXXXXXXXXXXXXXXXXXXXXXXXXXXXXXXXXXXXXXXXXXXXXXXXXXXXXXXXXXXXXXXXXXXXXXXXXXXXXXXX",
"XXXXXXXXXXXXXXXXXXXXXXXXXXXXXXXXXXXXXXXXXXXXXXXXXXXXXXXXXXXXXXXXXXXXXXXXXXXXXXXXXXXXXXXXXXXXXXXXXXXXXXXX",
"XXXXXXXXXXXX    XXXXXXoooooXXXXoooooXXXXX.....XXXXX.....XXXX.....XXXXX.....XXXXX     XXXX     XXXXXXXXXX",
"XXXXXXXXXXX      XXXXooooooXXXXooooooXXX.......XXX......XXXX......XXX.......XXX      XXX       XXXXXXXXX",
"XXXXXXXXXXX       XXXoooooooXXXooooooXXX.......XXX.......XX.......XXX.......XXX      XXX       XXXXXXXXX",
"XXXXXXXXXXX       XXXoooooooXXXooooooXXX.......XXX.......XX.......XXX.......XXX      XXX       XXXXXXXXX",
"XXXXXXXXXXX       XXXoooooooXXXooooooXXX.......XXX......XXXX......XXX.......XXX      XXX       XXXXXXXXX",
"XXXXXXXXXXXX     XXXXXoooooXXXXoooooXXXXX.....XXXXX.....XXXX.....XXXXX.....XXXX      XXXX     XXXXXXXXXX",
"XXXXXXXXXXXXXXXXXXXXXXXXXXXXXXXXXXXXXXXXXXXXXXXXXXXXXXXXXXXXXXXXXXXXXXXXXXXXXXXXXXXXXXXXXXXXXXXXXXXXXXXX",
"XXXXXXXXXXXXXXXXXXXXXXXXXXXXXXXXXXXXXXXXXXXXXXXXXXXXXXXXXXXXXXXXXXXXXXXXXXXXXXXXXXXXXXXXXXXXXXXXXXXXXXXX",
"XXXXXXXXXXXXXXXXXXXXXXXXXXXXXXXXXXXXXXXXXXXXXXXXXXXXXXXXXXXXXXXXXXXXXXXXXXXXXXXXXXXXXXXXXXXXXXXXXXXXXXXX",
"XXXXXXXXXXXXXXXXXXXXXXXXXXXXXXXXXXXXXXXXXXXXXXXXXXXXXXXXXXXXXXXXXXXXXXXXXXXXXXXXXXXXXXXXXXXXXXXXXXXXXXXX",
"XXXXXXXXXXXX     XXXXooooooXXXXoooooXXXXX     XXXX     XXXXX.....XXXX......XXXX.....XXXXX     XXXXXXXXXX",
"XXXXXXXXXXX       XXXooooooXXXoooooooXXX      XXXX      XXX.......XXX......XXX.......XXX       XXXXXXXXX",
"XXXXXXXXXXX       XXoooooooXXXoooooooXXX       XX       XXX.......XXX......XXX.......XXX       XXXXXXXXX",
"XXXXXXXXXXX       XXXooooooXXXoooooooXXX       XX       XXX.......XXX......XXX.......XXX       XXXXXXXXX",
"XXXXXXXXXXX      XXXXooooooXXXoooooooXXX      XXXX      XXX.......XXX......XXXX......XXX      XXXXXXXXXX",
"XXXXXXXXXXXX     XXXXXooooXXXXXoooooXXXXX    XXXXX     XXXXX.....XXXXX....XXXXX.....XXXXX     XXXXXXXXXX",
"XXXXXXXXXXXXXXXXXXXXXXXXXXXXXXXXXXXXXXXXXXXXXXXXXXXXXXXXXXXXXXXXXXXXXXXXXXXXXXXXXXXXXXXXXXXXXXXXXXXXXXXX",
"XXXXXXXXXXXXXXXXXXXXXXXXXXXXXXXXXXXXXXXXXXXXXXXXXXXXXXXXXXXXXXXXXXXXXXXXXXXXXXXXXXXXXXXXXXXXXXXXXXXXXXXX",
"XXXXXXXXXXXXXXXXXXXXXXXXXXXXXXXXXXXXXXXXXXXXXXXXXXXXXXXXXXXXXXXXXXXXXXXXXXXXXXXXXXXXXXXXXXXXXXXXXXXXXXXX",
"XXXXXXXXXXXX    XXXXXXooooXXXXXXoooXXXXXX    XXXXXX    XXXXXX   XXXXXX....XXXXXX....XXXXX    XXXXXXXXXXX",
"XXXXXXXXXXX      XXXXooooooXXXXoooooXXXX      XXXX      XXXX     XXXX......XXXX......XXX      XXXXXXXXXX",
"XXXXXXXXXXX       XXXooooooXXXoooooooXXX      XXX       XXX       XXX......XXX.......XXX       XXXXXXXXX",
"XXXXXXXXXXX       XXoooooooXXXoooooooXXX       XX       XXX       XXX......XXX.......XXX       XXXXXXXXX",
"XXXXXXXXXXX       XXXooooooXXXoooooooXXX      XXX       XXX       XXX......XXX.......XXX       XXXXXXXXX",
"XXXXXXXXXXX      XXXXooooooXXXXoooooXXXX      XXXX      XXXX     XXXX......XXXX.....XXXX      XXXXXXXXXX",
"XXXXXXXXXXXXX   XXXXXXooooXXXXXXoooXXXXXX    XXXXXX   XXXXXXX   XXXXXX....XXXXXX...XXXXXXX   XXXXXXXXXXX",
"XXXXXXXXXXXXXXXXXXXXXXXXXXXXXXXXXXXXXXXXXXXXXXXXXXXXXXXXXXXXXXXXXXXXXXXXXXXXXXXXXXXXXXXXXXXXXXXXXXXXXXXX",
"XXXXXXXXXXXXXXXXXXXXXXXXXXXXXXXXXXXXXXXXXXXXXXXXXXXXXXXXXXXXXXXXXXXXXXXXXXXXXXXXXXXXXXXXXXXXXXXXXXXXXXXX",
"XXXXXXXXXXXXXXXXXXXXXXXXXXXXXXXXXXXXXXXXXXXXXXXXXXXXXXXXXXXXXXXXXXXXXXXXXXXXXXXXXXXXXXXXXXXXXXXXXXXXXXXX",
"XXXXXXXXXXXX     XXXXXooooXXXXXoooooXXXXX     XXXX     XXXXX.....XXXXX....XXXXX.....XXXXX     XXXXXXXXXX",
"XXXXXXXXXXX      XXXXooooooXXXoooooooXXX      XXXX      XXX.......XXX......XXXX......XXX      XXXXXXXXXX",
"XXXXXXXXXXX       XXXooooooXXXoooooooXXX       XX       XXX.......XXX......XXX.......XXX       XXXXXXXXX",
"XXXXXXXXXXX       XXoooooooXXXoooooooXXX       XX       XXX.......XXX......XXX.......XXX       XXXXXXXXX",
"XXXXXXXXXXX       XXXooooooXXXoooooooXXX      XXXX      XXX.......XXX......XXX.......XXX       XXXXXXXXX",
"XXXXXXXXXXXX     XXXXooooooXXXXoooooXXXXX     XXXX     XXXXX.....XXXX......XXXX.....XXXXX     XXXXXXXXXX",
"XXXXXXXXXXXXXXXXXXXXXXXXXXXXXXXXXXXXXXXXXXXXXXXXXXXXXXXXXXXXXXXXXXXXXXXXXXXXXXXXXXXXXXXXXXXXXXXXXXXXXXXX",
"XXXXXXXXXXXXXXXXXXXXXXXXXXXXXXXXXXXXXXXXXXXXXXXXXXXXXXXXXXXXXXXXXXXXXXXXXXXXXXXXXXXXXXXXXXXXXXXXXXXXXXXX",
"XXXXXXXXXXXXXXXXXXXXXXXXXXXXXXXXXXXXXXXXXXXXXXXXXXXXXXXXXXXXXXXXXXXXXXXXXXXXXXXXXXXXXXXXXXXXXXXXXXXXXXXX",
"XXXXXXXXXXXXXXXXXXXXXXXXXXXXXXXXXXXXXXXXXXXXXXXXXXXXXXXXXXXXXXXXXXXXXXXXXXXXXXXXXXXXXXXXXXXXXXXXXXXXXXXX",
"XXXXXXXXXXXX     XXXXooooooXXXXoooooXXXX......XXXX.....XXXXX.....XXXX......XXXX     XXXXX     XXXXXXXXXX",
"XXXXXXXXXXX       XXXooooooXXXoooooooXXX......XXXX......XXX.......XXX......XXX       XXX       XXXXXXXXX",
"XXXXXXXXXXX       XXoooooooXXXoooooooXXX.......XX.......XXX.......XXX......XXX       XXX       XXXXXXXXX",
"XXXXXXXXXXX       XXXooooooXXXoooooooXXX.......XX.......XXX.......XXX......XXX       XXX       XXXXXXXXX",
"XXXXXXXXXXX      XXXXooooooXXXXooooooXXX......XXXX......XXX......XXXX......XXXX      XXX      XXXXXXXXXX",
"XXXXXXXXXXXX    XXXXXXooooXXXXXoooooXXXXX....XXXXXX....XXXXX.....XXXXX....XXXXXX    XXXXX    XXXXXXXXXXX",
"XXXXXXXXXXXXXXXXXXXXXXXXXXXXXXXXXXXXXXXXXXXXXXXXXXXXXXXXXXXXXXXXXXXXXXXXXXXXXXXXXXXXXXXXXXXXXXXXXXXXXXXX",
"XXXXXXXXXXXXXXXXXXXXXXXXXXXXXXXXXXXXXXXXXXXXXXXXXXXXXXXXXXXXXXXXXXXXXXXXXXXXXXXXXXXXXXXXXXXXXXXXXXXXXXXX",
"XXXXXXXXXXXXXXXXXXXXXXXXXXXXXXXXXXXXXXXXXXXXXXXXXXXXXXXXXXXXXXXXXXXXXXXXXXXXXXXXXXXXXXXXXXXXXXXXXXXXXXXX",
"XXXXXXXXXXXX    XXXXXXooooXXXXXXooooXXXXX....XXXXXX....XXXXX     XXXXX    XXXXXX    XXXXX    XXXXXXXXXXX",
"XXXXXXXXXXX      XXXXooooooXXXXooooooXXX......XXXX......XXX      XXXX      XXXX      XXX      XXXXXXXXXX",
"XXXXXXXXXXX       XXXooooooXXXoooooooXXX.......XX.......XXX       XXX      XXX       XXX       XXXXXXXXX",
"XXXXXXXXXXX       XXoooooooXXXoooooooXXX.......XX.......XXX       XXX      XXX       XXX       XXXXXXXXX",
"XXXXXXXXXXX       XXXooooooXXXoooooooXXX......XXXX......XXX       XXX      XXX       XXX       XXXXXXXXX",
"XXXXXXXXXXXX     XXXXooooooXXXXoooooXXXX......XXXX......XXXX     XXXX      XXXX     XXXXX     XXXXXXXXXX",
"XXXXXXXXXXXXX   XXXXXXoooXXXXXXXoooXXXXXXX...XXXXXX...XXXXXXX   XXXXXXX   XXXXXX   XXXXXXX   XXXXXXXXXXX",
"XXXXXXXXXXXXXXXXXXXXXXXXXXXXXXXXXXXXXXXXXXXXXXXXXXXXXXXXXXXXXXXXXXXXXXXXXXXXXXXXXXXXXXXXXXXXXXXXXXXXXXXX",
"XXXXXXXXXXXXXXXXXXXXXXXXXXXXXXXXXXXXXXXXXXXXXXXXXXXXXXXXXXXXXXXXXXXXXXXXXXXXXXXXXXXXXXXXXXXXXXXXXXXXXXXX",
"XXXXXXXXXXXXXXXXXXXXXXXXXXXXXXXXXXXXXXXXXXXXXXXXXXXXXXXXXXXXXXXXXXXXXXXXXXXXXXXXXXXXXXXXXXXXXXXXXXXXXXXX",
"XXXXXXXXXXXX     XXXXoooooXXXXXoooooXXXXX     XXXX     XXXXX     XXXXX     XXXX     XXXXX     XXXXXXXXXX",
"XXXXXXXXXXX       XXXooooooXXXoooooooXXX      XXXX      XXX       XXX      XXX       XXX       XXXXXXXXX",
"XXXXXXXXXXX       XXXooooooXXXoooooooXXX       XX       XXX       XXX      XXX       XXX       XXXXXXXXX",
"XXXXXXXXXXX       XXXooooooXXXoooooooXXX       XX       XXX       XXX      XXX       XXX       XXXXXXXXX",
"XXXXXXXXXXX      XXXXooooooXXXoooooooXXX      XXXX      XXX       XXX      XXX       XXX      XXXXXXXXXX",
"XXXXXXXXXXXX     XXXXoooooXXXXXoooooXXXXX     XXXX     XXXXX     XXXXX     XXXX     XXXXX     XXXXXXXXXX",
"XXXXXXXXXXXXXXXXXXXXXXXXXXXXXXXXXXXXXXXXXXXXXXXXXXXXXXXXXXXXXXXXXXXXXXXXXXXXXXXXXXXXXXXXXXXXXXXXXXXXXXXX",
"XXXXXXXXXXXXXXXXXXXXXXXXXXXXXXXXXXXXXXXXXXXXXXXXXXXXXXXXXXXXXXXXXXXXXXXXXXXXXXXXXXXXXXXXXXXXXXXXXXXXXXXX",
"XXXXXXXXXXXXXXXXXXXXXXXXXXXXXXXXXXXXXXXXXXXXXXXXXXXXXXXXXXXXXXXXXXXXXXXXXXXXXXXXXXXXXXXXXXXXXXXXXXXXXXXX",
"XXXXXXXXXXXXX   XXXXXXooooXXXXXXoooXXXXXXX   XXXXXX   XXXXXXX   XXXXXX    XXXXXXoooXXXXXXX   XXXXXXXXXXX",
"XXXXXXXXXXXX     XXXXooooooXXXXoooooXXXX      XXXX      XXXX     XXXX      XXXXoooooXXXXX     XXXXXXXXXX",
"XXXXXXXXXXX       XXXooooooXXXoooooooXXX      XXX       XXX       XXX      XXXoooooooXXX       XXXXXXXXX",
"XXXXXXXXXXX       XXoooooooXXXoooooooXXX       XX       XXX       XXX      XXXoooooooXXX       XXXXXXXXX",
"XXXXXXXXXXX       XXXooooooXXXoooooooXXX      XXX       XXX       XXX      XXXoooooooXXX       XXXXXXXXX",
"XXXXXXXXXXX      XXXXooooooXXXXoooooXXXX      XXXX      XXXX     XXXX      XXXXooooooXXX      XXXXXXXXXX",
"XXXXXXXXXXXX    XXXXXXooooXXXXXXoooXXXXXX    XXXXXX    XXXXXX   XXXXXX    XXXXXXooooXXXXX    XXXXXXXXXXX",
"XXXXXXXXXXXXXXXXXXXXXXXXXXXXXXXXXXXXXXXXXXXXXXXXXXXXXXXXXXXXXXXXXXXXXXXXXXXXXXXXXXXXXXXXXXXXXXXXXXXXXXXX",
"XXXXXXXXXXXXXXXXXXXXXXXXXXXXXXXXXXXXXXXXXXXXXXXXXXXXXXXXXXXXXXXXXXXXXXXXXXXXXXXXXXXXXXXXXXXXXXXXXXXXXXXX",
"XXXXXXXXXXXXXXXXXXXXXXXXXXXXXXXXXXXXXXXXXXXXXXXXXXXXXXXXXXXXXXXXXXXXXXXXXXXXXXXXXXXXXXXXXXXXXXXXXXXXXXXX",
"XXXXXXXXXXXX     XXXXXooooXXXXXoooooXXXXXooooXXXXXXooooXXXXXoooooXXXXXooooXXXXXoooooXXXXX     XXXXXXXXXX",
"XXXXXXXXXXX      XXXXooooooXXXXooooooXXXooooooXXXXooooooXXXoooooooXXXooooooXXXXooooooXXX      XXXXXXXXXX",
"XXXXXXXXXXX       XXXooooooXXXoooooooXXXoooooooXXoooooooXXXoooooooXXXooooooXXXoooooooXXX       XXXXXXXXX",
"XXXXXXXXXXX       XXoooooooXXXoooooooXXXoooooooXXoooooooXXXoooooooXXXooooooXXXoooooooXXX       XXXXXXXXX",
"XXXXXXXXXXX       XXXooooooXXXoooooooXXXooooooXXXXooooooXXXoooooooXXXooooooXXXoooooooXXX       XXXXXXXXX",
"XXXXXXXXXXXX     XXXXooooooXXXXoooooXXXXXoooooXXXXoooooXXXXXoooooXXXXooooooXXXXoooooXXXXX     XXXXXXXXXX",
"XXXXXXXXXXXXXXXXXXXXXXXXXXXXXXXXXXXXXXXXXXXXXXXXXXXXXXXXXXXXXXXXXXXXXXXXXXXXXXXXXXXXXXXXXXXXXXXXXXXXXXXX",
"XXXXXXXXXXXXXXXXXXXXXXXXXXXXXXXXXXXXXXXXXXXXXXXXXXXXXXXXXXXXXXXXXXXXXXXXXXXXXXXXXXXXXXXXXXXXXXXXXXXXXXXX",
"XXXXXXXXXXXXXXXXXXXXXXXXXXXXXXXXXXXXXXXXXXXXXXXXXXXXXXXXXXXXXXXXXXXXXXXXXXXXXXXXXXXXXXXXXXXXXXXXXXXXXXXX",
"XXXXXXXXXXXXXXXXXXXXXXXXXXXXXXXXXXXXXXXXXXXXXXXXXXXXXXXXXXXXXXXXXXXXXXXXXXXXXXXXXXXXXXXXXXXXXXXXXXXXXXXX",
"XXXXXXXXXXXX     XXXXooooooXXXXoooooXXXXXoooooXXXXoooooXXXXXoooooXXXXooooooXXXXoooooXXXXX     XXXXXXXXXX",
"XXXXXXXXXXX       XXXooooooXXXoooooooXXXooooooXXXXooooooXXXoooooooXXXooooooXXXoooooooXXX       XXXXXXXXX",
"XXXXXXXXXXX       XXoooooooXXXoooooooXXXoooooooXXoooooooXXXoooooooXXXooooooXXXoooooooXXX       XXXXXXXXX",
"XXXXXXXXXXX       XXXooooooXXXoooooooXXXoooooooXXoooooooXXXoooooooXXXooooooXXXoooooooXXX       XXXXXXXXX",
"XXXXXXXXXXX      XXXXooooooXXXoooooooXXXooooooXXXXooooooXXXoooooooXXXooooooXXXXooooooXXX      XXXXXXXXXX",
"XXXXXXXXXXXX     XXXXXooooXXXXXoooooXXXXXooooXXXXXoooooXXXXXoooooXXXXXooooXXXXXoooooXXXXX     XXXXXXXXXX",
"XXXXXXXXXXXXXXXXXXXXXXXXXXXXXXXXXXXXXXXXXXXXXXXXXXXXXXXXXXXXXXXXXXXXXXXXXXXXXXXXXXXXXXXXXXXXXXXXXXXXXXXX",
"XXXXXXXXXXXXXXXXXXXXXXXXXXXXXXXXXXXXXXXXXXXXXXXXXXXXXXXXXXXXXXXXXXXXXXXXXXXXXXXXXXXXXXXXXXXXXXXXXXXXXXXX",
"XXXXXXXXXXXXXXXXXXXXXXXXXXXXXXXXXXXXXXXXXXXXXXXXXXXXXXXXXXXXXXXXXXXXXXXXXXXXXXXXXXXXXXXXXXXXXXXXXXXXXXXX",
"XXXXXXXXXXXX    XXXXXX    XXXXXX   XXXXXX    XXXXXX    XXXXXX   XXXXXX    XXXXXX    XXXXX    XXXXXXXXXXX",
"XXXXXXXXXXX      XXXX      XXXX     XXXX      XXXX      XXXX     XXXX      XXXX      XXX      XXXXXXXXXX",
"XXXXXXXXXXX       XXX      XXX       XXX      XXX       XXX       XXX      XXX       XXX       XXXXXXXXX",
"XXXXXXXXXXX       XX       XXX       XXX       XX       XXX       XXX      XXX       XXX       XXXXXXXXX",
"XXXXXXXXXXX       XXX      XXX       XXX      XXX       XXX       XXX      XXX       XXX       XXXXXXXXX",
"XXXXXXXXXXX      XXXX      XXXX     XXXX      XXXX      XXXX     XXXX      XXXX     XXXX      XXXXXXXXXX",
"XXXXXXXXXXXXX   XXXXXX    XXXXXX   XXXXXX    XXXXXX   XXXXXXX   XXXXXX    XXXXXX   XXXXXXX   XXXXXXXXXXX",
"XXXXXXXXXXXXXXXXXXXXXXXXXXXXXXXXXXXXXXXXXXXXXXXXXXXXXXXXXXXXXXXXXXXXXXXXXXXXXXXXXXXXXXXXXXXXXXXXXXXXXXXX",
"XXXXXXXXXXXXXXXXXXXXXXXXXXXXXXXXXXXXXXXXXXXXXXXXXXXXXXXXXXXXXXXXXXXXXXXXXXXXXXXXXXXXXXXXXXXXXXXXXXXXXXXX",
"XXXXXXXXXXXXXXXXXXXXXXXXXXXXXXXXXXXXXXXXXXXXXXXXXXXXXXXXXXXXXXXXXXXXXXXXXXXXXXXXXXXXXXXXXXXXXXXXXXXXXXXX",
"XXXXXXXXXXXXXXXXXXXXXXXXXXXXXXXXXXXXXXXXXXXXXXXXXXXXXXXXXXXXXXXXXXXXXXXXXXXXXXXXXXXXXXXXXXXXXXXXXXXXXXXX",
"XXXXXXXXXXXXXXXXXXXXXXXXXXXXXXXXXXXXXXXXXXXXXXXXXXXXXXXXXXXXXXXXXXXXXXXXXXXXXXXXXXXXXXXXXXXXXXXXXXXXXXXX",
"XXXXXXXXXXXXXXXXXXXXXXXXXXXXXXXXXXXXXXXXXXXXXXXXXXXXXXXXXXXXXXXXXXXXXXXXXXXXXXXXXXXXXXXXXXXXXXXXXXXXXXXX",
"XXXXXXXXXXXXXXXXXXXXXXXXXXXXXXXXXXXXXXXXXXXXXXXXXXXXXXXXXXXXXXXXXXXXXXXXXXXXXXXXXXXXXXXXXXXXXXXXXXXXXXXX",
"XXXXXXXXXXXXXXXXXXXXXXXXXXXXXXXXXXXXXXXXXXXXXXXXXXXXXXXXXXXXXXXXXXXXXXXXXXXXXXXXXXXXXXXXXXXXXXXXXXXXXXXX",
"XXXXXXXXXXXXXXXXXXXXXXXXXXXXXXXXXXXXXXXXXXXXXXXXXXXXXXXXXXXXXXXXXXXXXXXXXXXXXXXXXXXXXXXXXXXXXXXXXXXXXXXX",
"XXXXXXXXXXXXXXXXXXXXXXXXXXXXXXXXXXXXXXXXXXXXXXXXXXXXXXXXXXXXXXXXXXXXXXXXXXXXXXXXXXXXXXXXXXXXXXXXXXXXXXXX"
};
