/* XPM */
static char *logo_k[] = {
/* width height ncolors chars_per_pixel */
"105 143 5 1",
/* colors */
"  c #000000",
". c #00FFFF",
"X c #FF0000",
"o c none",
"O c #0000FF",
/* pixels */
"ooooooooooooooooooooooooooooooooooooooooooooooooooooooooooooooooooooooooooooooooooooooooooooooooooooooooo",
"ooooooooooooooooooooooooooooooooooooooooooooooooooooooooooooooooooooooooooooooooooooooooooooooooooooooooo",
"ooooooooooooooooooooooooooooooooooooooooooooooooooooooooooooooooooooooooooooooooooooooooooooooooooooooooo",
"ooooooooooooooooooooooooooooooooooooooooooooooooooooooooooooooooooooooooooooooooooooooooooooooooooooooooo",
"ooooooooooooooooooooooooooooooooooooooooooooooooooooooooooooooooooooooooooooooooooooooooooooooooooooooooo",
"ooooooooooooooooooooooooooooooooooooooooooooooooooooooooooooooooooooooooooooooooooooooooooooooooooooooooo",
"ooooooooooooooooooooooooooooooooooooooooooooooooooooooooooooooooooooooooooooooooooooooooooooooooooooooooo",
"ooooooooooooooooooooooooooooooooooooooooooooooooooooooooooooooooooooooooooooooooooooooooooooooooooooooooo",
"ooooooooooooooooooooooooooooooooooooooooooooooooooooooooooooooooooooooooooooooooooooooooooooooooooooooooo",
"ooooooooooooo   oooooo    oooooo   oooooo    oooooo    oooooo   oooooo    oooooo   ooooooo   oooooooooooo",
"oooooooooooo ... oooo. ..  oooo ... oooo  ....oooo....  oooo ... oooo  ..  oooo ... ooooo ... ooooooooooo",
"ooooooooooo ..... oo  .... ooo ..... ooo ..... oo ..... ooo ..... ooo .... ooo ..... ooo ..... oooooooooo",
"ooooooooooo ..... oo ...... oo ..... ooo ..... oo ..... ooo ..... oo ...... oo ..... ooo ..... oooooooooo",
"ooooooooooo ..... oo ..... ooo ..... ooo ..... oo ..... ooo ..... oo ...... oo ..... ooo ..... oooooooooo",
"ooooooooooo ....  oo  .... ooo ..... ooo ....  oo  .... ooo ..... ooo .... ooo ..... ooo ....  oooooooooo",
"oooooooooooo  .  oooo      oooo  .  oooo   .  oooo  .   oooo  .  oooo      oooo  .  ooooo  .  ooooooooooo",
"oooooooooooooo oooooooooooooooooo ooooooooo oooooooo ooooooooo oooooooooooooooooo ooooooooo ooooooooooooo",
"ooooooooooooooooooooooooooooooooooooooooooooooooooooooooooooooooooooooooooooooooooooooooooooooooooooooooo",
"ooooooooooooooooooooooooooooooooooooooooooooooooooooooooooooooooooooooooooooooooooooooooooooooooooooooooo",
"oooooooooooo    oooooo    oooooo    ooooo    oooooo    ooooo    oooooo    oooooo    ooooo    oooooooooooo",
"ooooooooooo .... oooo OOOO oooo OOOO ooo XXXX oooo XXXX ooo .... oooo .... oooo .... ooo .... ooooooooooo",
"ooooooooooo ..... oo OOOOO ooo OOOOO ooo XXXXX oo XXXXX ooo ..... ooo ....  oo ..... ooo ..... oooooooooo",
"ooooooooooo ..... oo OOOOOO oo OOOOO oo XXXXXX oo XXXXX ooo ..... oo ...... oo ..... ooo ..... oooooooooo",
"ooooooooooo ..... oo OOOOO ooo OOOOO ooo XXXXX oo XXXXX ooo ..... ooo ....  oo ..... ooo ..... oooooooooo",
"ooooooooooo .... oooo OOOO oooo OOO oooo XXXX oooo XXXX oooo ... oooo .... oooo .... ooo .... ooooooooooo",
"oooooooooooo    oooooo    oooooo   oooooo    oooooo    oooooo   oooooo    oooooo    ooooo    oooooooooooo",
"ooooooooooooooooooooooooooooooooooooooooooooooooooooooooooooooooooooooooooooooooooooooooooooooooooooooooo",
"ooooooooooooooooooooooooooooooooooooooooooooooooooooooooooooooooooooooooooooooooooooooooooooooooooooooooo",
"oooooooooooooo oooooooo   oooooo    oooooo   oooooo    oooooo    oooooo   oooooo    oooooo   oooooooooooo",
"oooooooooooo  .  ooooo OOO ooooO OO  oooo XXX oooo  XX XooooX XX  oooo XXX oooo  ..  oooo ... ooooooooooo",
"ooooooooooo ....  ooo OOOOO oo  OOOO ooo XXXXX ooo XXXX  oo XXXXX ooo XXXXX ooo .... ooo ..... oooooooooo",
"ooooooooooo ..... ooo OOOOO oo OOOOOO oo XXXXX ooo XXXXX oo XXXXX ooo XXXXX oo ...... oo ..... oooooooooo",
"ooooooooooo ..... ooo OOOOO oo OOOOO ooo XXXXX ooo XXXXX oo XXXXX ooo XXXXX oo ...... oo ..... oooooooooo",
"ooooooooooo ..... ooo OOOOO oo  OOOO ooo XXXXX ooo XXXX  oo  XXXX ooo XXXXX ooo .... ooo ..... oooooooooo",
"oooooooooooo ... ooooo  O  oooo  OO  oooo  X  oooo   X  oooo  X   oooo  X  oooo  ..  oooo  .  ooooooooooo",
"ooooooooooooo   oooooooo oooooooo  oooooooo ooooooooo oooooooo ooooooooo oooooooo  oooooooo ooooooooooooo",
"ooooooooooooooooooooooooooooooooooooooooooooooooooooooooooooooooooooooooooooooooooooooooooooooooooooooooo",
"ooooooooooooooooooooooooooooooooooooooooooooooooooooooooooooooooooooooooooooooooooooooooooooooooooooooooo",
"ooooooooooooo   oooooo    oooooo   oooooo    oooooo    oooooo   oooooo    oooooo   ooooooo   oooooooooooo",
"oooooooooooo ... oooo OOO  oooo OOO oooo  ... oooo ...  oooo XXX oooo XXXX oooo XXX ooooo ... ooooooooooo",
"ooooooooooo ..... oo OOOOO ooo OOOOO ooo ..... oo ..... ooo XXXXX ooo XXXX ooo XXXXX ooo ..... oooooooooo",
"ooooooooooo ..... oo OOOOOO oo OOOOO ooo ..... oo ..... ooo XXXXX oo XXXXXX oo XXXXX ooo ..... oooooooooo",
"ooooooooooo ..... oo OOOOO ooo OOOOO ooo ..... oo ..... ooo XXXXX oo  XXXX  oo XXXXX ooo ..... oooooooooo",
"ooooooooooo .... oooo OOOO ooo OOOOO ooo .... oooo .... ooo XXXXX ooo XXXX oooo XXXX ooo .... ooooooooooo",
"oooooooooooo     ooooo    ooooo     ooooo    oooooo    ooooo     ooooo    ooooo     ooooo     ooooooooooo",
"ooooooooooooooooooooooooooooooooooooooooooooooooooooooooooooooooooooooooooooooooooooooooooooooooooooooooo",
"ooooooooooooooooooooooooooooooooooooooooooooooooooooooooooooooooooooooooooooooooooooooooooooooooooooooooo",
"ooooooooooooooooooooooooooooooooooooooooooooooooooooooooooooooooooooooooooooooooooooooooooooooooooooooooo",
"oooooooooooo    oooooo    ooooo     ooooo    oooooo    ooooo     ooooo    ooooo     ooooo    oooooooooooo",
"ooooooooooo .... oooo OOOO oooo OOOO ooo .... oooo .... ooo .... oooo XXXX oooo XXXX ooo .... ooooooooooo",
"ooooooooooo ..... oo OOOOO ooo OOOOO ooo ..... oo ..... ooo ..... ooo XXXX  oo XXXXX ooo ..... oooooooooo",
"ooooooooooo ..... oo OOOOOO oo OOOOO ooo ..... oo ..... ooo ..... oo XXXXXX oo XXXXX ooo ..... oooooooooo",
"ooooooooooo ..... oo OOOOO ooo OOOOO ooo ..... oo ..... ooo ..... ooo XXXX  oo XXXXX ooo ..... oooooooooo",
"ooooooooooo  ... oooo OOOO oooo OOO oooo  ... oooo ...  oooo ... oooo XXXX oooo XXX oooo  ... ooooooooooo",
"ooooooooooooo   oooooo    oooooo   oooooo    oooooo    oooooo   oooooo    oooooo   ooooooo   oooooooooooo",
"ooooooooooooooooooooooooooooooooooooooooooooooooooooooooooooooooooooooooooooooooooooooooooooooooooooooooo",
"ooooooooooooooooooooooooooooooooooooooooooooooooooooooooooooooooooooooooooooooooooooooooooooooooooooooooo",
"ooooooooooooo  oooooooo  oooooooo  ooooooo  oooooooo  ooooooo  oooooooo  oooooooo  ooooooo  ooooooooooooo",
"oooooooooooo  .  oooo  OO  oooo  O  oooo  ..  oooo  ..  oooo  X  oooo  XX  oooo  X  ooooo  .  ooooooooooo",
"ooooooooooo ..... oo  OOOO ooo OOOOO ooo ....  oo  .... ooo XXXXX ooo XXXX ooo XXXXX ooo ..... oooooooooo",
"ooooooooooo ..... oo OOOOOO oo OOOOO ooo ..... oo ..... ooo XXXXX oo XXXXXX oo XXXXX ooo ..... oooooooooo",
"ooooooooooo ..... oo OOOOOO oo OOOOO ooo ..... oo ..... ooo XXXXX oo XXXXXX oo XXXXX ooo ..... oooooooooo",
"ooooooooooo ..... oo  OOOO ooo OOOOO ooo ....  oo  .... ooo XXXXX ooo XXXX ooo XXXXX ooo ..... oooooooooo",
"oooooooooooo  .  oooo  OO  oooo  O  oooo  ..  oooo  ..  oooo  X  oooo  XX  oooo  X  ooooo  .  ooooooooooo",
"ooooooooooooo  oooooooo  oooooooo  ooooooo  oooooooo  ooooooo  oooooooo  oooooooo  ooooooo  ooooooooooooo",
"ooooooooooooooooooooooooooooooooooooooooooooooooooooooooooooooooooooooooooooooooooooooooooooooooooooooooo",
"ooooooooooooooooooooooooooooooooooooooooooooooooooooooooooooooooooooooooooooooooooooooooooooooooooooooooo",
"ooooooooooooo   oooooo    oooooo   oooooo    oooooo    oooooo   oooooo    oooooo   ooooooo   oooooooooooo",
"ooooooooooo  ... oooo OOOO oooo OOO oooo XXXX oooo XXXX oooo XXX oooo XXXX oooo ...  ooo  ... ooooooooooo",
"ooooooooooo ..... oo OOOOO ooo OOOOO ooo XXXXX oo XXXXX ooo XXXXX ooo XXXX  oo ..... ooo ..... oooooooooo",
"ooooooooooo ..... oo OOOOOO oo OOOOO oo XXXXXX oo XXXXX ooo XXXXX oo XXXXXX oo ..... ooo ..... oooooooooo",
"ooooooooooo ..... oo OOOOO ooo OOOOO ooo XXXXX oo XXXXX ooo XXXXX ooo XXXX  oo ..... ooo ..... oooooooooo",
"ooooooooooo .... oooo OOOO oooo OOOO ooo XXXX oooo XXXX ooo XXXX oooo XXXX oooo .... ooo .... ooooooooooo",
"oooooooooooo    oooooo    oooooo    ooooo    oooooo    ooooo     ooooo    oooooo    ooooo    oooooooooooo",
"ooooooooooooooooooooooooooooooooooooooooooooooooooooooooooooooooooooooooooooooooooooooooooooooooooooooooo",
"ooooooooooooooooooooooooooooooooooooooooooooooooooooooooooooooooooooooooooooooooooooooooooooooooooooooooo",
"ooooooooooooooooooooooooooooooooooooooooooooooooooooooooooooooooooooooooooooooooooooooooooooooooooooooooo",
"oooooooooooo     oooo      oooo     oooo      oooo      oooo     oooo      oooo     ooooo     ooooooooooo",
"ooooooooooo ....  oo  OOOO ooo OOOOO ooo XXXX  oo  XXXX ooo ..... ooo .... ooo  .... ooo ....  oooooooooo",
"ooooooooooo ..... oo OOOOO ooo OOOOO ooo XXXXX oo XXXXX ooo ..... oo ...... oo ..... ooo ..... oooooooooo",
"ooooooooooo ..... oo OOOOOO oo OOOOO ooo XXXXX oo XXXXX ooo ..... oo ...... oo ..... ooo ..... oooooooooo",
"ooooooooooo ..... oo OOOOO ooo OOOOO ooo XXXXX oo XXXXX ooo ..... ooo .... ooo ..... ooo ..... oooooooooo",
"oooooooooooo ... ooooOOOO  oooo OOO oooo  XXXXooooXXXX  oooo ... oooo  ... oooo ... ooooo ... ooooooooooo",
"ooooooooooooo   oooooo    oooooo   oooooo    oooooo    oooooo   oooooo    oooooo   ooooooo   oooooooooooo",
"ooooooooooooooooooooooooooooooooooooooooooooooooooooooooooooooooooooooooooooooooooooooooooooooooooooooooo",
"ooooooooooooooooooooooooooooooooooooooooooooooooooooooooooooooooooooooooooooooooooooooooooooooooooooooooo",
"ooooooooooooo   oooooo    oooooo   oooooo    oooooo    oooooo   oooooo    oooooo   ooooooo   oooooooooooo",
"oooooooooooo ... ooooO OO  oooo OOO oooo  ....oooo....  oooo ... oooo  ..  oooo ... ooooo ... ooooooooooo",
"ooooooooooo ..... oo  OOOO ooo OOOOO ooo ..... oo ..... ooo ..... ooo .... ooo ..... ooo ..... oooooooooo",
"ooooooooooo ..... oo OOOOOO oo OOOOO ooo ..... oo ..... ooo ..... oo ...... oo ..... ooo ..... oooooooooo",
"ooooooooooo ..... oo OOOOO ooo OOOOO ooo ..... oo ..... ooo ..... oo ...... oo ..... ooo ..... oooooooooo",
"ooooooooooo ....  oo  OOOO ooo OOOOO ooo ....  oo  .... ooo ..... ooo .... ooo ..... ooo ....  oooooooooo",
"oooooooooooo  .  oooo      oooo  O  oooo   .  oooo  .   oooo  .  oooo      oooo  .  ooooo  .  ooooooooooo",
"oooooooooooooo oooooooooooooooooo ooooooooo oooooooo ooooooooo oooooooooooooooooo ooooooooo ooooooooooooo",
"ooooooooooooooooooooooooooooooooooooooooooooooooooooooooooooooooooooooooooooooooooooooooooooooooooooooooo",
"ooooooooooooooooooooooooooooooooooooooooooooooooooooooooooooooooooooooooooooooooooooooooooooooooooooooooo",
"oooooooooooo    oooooo    oooooo    ooooo    oooooo    ooooo    oooooo    oooooo    ooooo    oooooooooooo",
"ooooooooooo .... oooo OOOO oooo OOOO ooo .... oooo .... ooo .... oooo .... oooo OOOO ooo .... ooooooooooo",
"ooooooooooo ..... oo OOOOO ooo OOOOO ooo ..... oo ..... ooo ..... ooo ....  oo OOOOO ooo ..... oooooooooo",
"ooooooooooo ..... oo OOOOOO oo OOOOO oo ...... oo ..... ooo ..... oo ...... oo OOOOO ooo ..... oooooooooo",
"ooooooooooo ..... oo OOOOO ooo OOOOO ooo ..... oo ..... ooo ..... ooo ....  oo OOOOO ooo ..... oooooooooo",
"ooooooooooo .... oooo OOOO oooo OOO oooo .... oooo .... oooo ... oooo .... oooo OOOO ooo .... ooooooooooo",
"oooooooooooo    oooooo    oooooo   oooooo    oooooo    oooooo   oooooo    oooooo    ooooo    oooooooooooo",
"ooooooooooooooooooooooooooooooooooooooooooooooooooooooooooooooooooooooooooooooooooooooooooooooooooooooooo",
"ooooooooooooooooooooooooooooooooooooooooooooooooooooooooooooooooooooooooooooooooooooooooooooooooooooooooo",
"oooooooooooooo oooooooo  oooooooo ooooooooo oooooooo ooooooooo oooooooo  oooooooo ooooooooo ooooooooooooo",
"oooooooooooo  .  oooo  OO  oooo  O  oooo   O  oooo  O   oooo  O  oooo  OO  oooo  O  ooooo  .  ooooooooooo",
"ooooooooooo ..... oo  OOOO ooo OOOOO ooo OOOO  oo  OOOO ooo OOOOO ooo OOOO ooo OOOOO ooo ..... oooooooooo",
"ooooooooooo ..... oo OOOOO ooo OOOOO ooo OOOOO oo OOOOO ooo OOOOO oo OOOOOO oo OOOOO ooo ..... oooooooooo",
"ooooooooooo ..... oo OOOOOO oo OOOOO ooo OOOOO oo OOOOO ooo OOOOO oo OOOOOO oo OOOOO ooo ..... oooooooooo",
"ooooooooooo ..... oo  OOOO ooo OOOOO ooo OOOO  oo OOOOO ooo OOOOO ooo OOOO ooo OOOOO ooo ..... oooooooooo",
"oooooooooooo ... ooooO OO  oooo OOO oooo  OO OooooO OO  oooo OOO oooo  OO  oooo OOO ooooo ... ooooooooooo",
"ooooooooooooo   oooooo    oooooo   oooooo    oooooo    oooooo   oooooo    oooooo   ooooooo   oooooooooooo",
"ooooooooooooooooooooooooooooooooooooooooooooooooooooooooooooooooooooooooooooooooooooooooooooooooooooooooo",
"ooooooooooooooooooooooooooooooooooooooooooooooooooooooooooooooooooooooooooooooooooooooooooooooooooooooooo",
"ooooooooooooo   oooooo    oooooo   oooooo    oooooo    oooooo   oooooo    oooooo   ooooooo   oooooooooooo",
"oooooooooooo ... oooo OOO  oooo OOO oooo  OOO oooo OOO  oooo OOO oooo OOOO oooo OOO ooooo ... ooooooooooo",
"ooooooooooo ..... oo OOOOO ooo OOOOO ooo OOOOO oo OOOOO ooo OOOOO ooo OOOO ooo OOOOO ooo ..... oooooooooo",
"ooooooooooo ..... oo OOOOOO oo OOOOO ooo OOOOO oo OOOOO ooo OOOOO oo OOOOOO oo OOOOO ooo ..... oooooooooo",
"ooooooooooo ..... oo OOOOO ooo OOOOO ooo OOOOO oo OOOOO ooo OOOOO oo  OOOO  oo OOOOO ooo ..... oooooooooo",
"ooooooooooo .... oooo OOOO ooo OOOOO ooo OOOO oooo OOOO ooo OOOOO ooo OOOO oooo OOOO ooo .... ooooooooooo",
"oooooooooooo     ooooo    ooooo     ooooo    oooooo    ooooo     ooooo    ooooo     ooooo     ooooooooooo",
"ooooooooooooooooooooooooooooooooooooooooooooooooooooooooooooooooooooooooooooooooooooooooooooooooooooooooo",
"ooooooooooooooooooooooooooooooooooooooooooooooooooooooooooooooooooooooooooooooooooooooooooooooooooooooooo",
"ooooooooooooooooooooooooooooooooooooooooooooooooooooooooooooooooooooooooooooooooooooooooooooooooooooooooo",
"oooooooooooo    oooooo    ooooo     ooooo    oooooo    ooooo     ooooo    ooooo     ooooo    oooooooooooo",
"ooooooooooo .... oooo .... oooo .... ooo .... oooo .... ooo .... oooo .... oooo .... ooo .... ooooooooooo",
"ooooooooooo ..... oo ..... ooo ..... ooo ..... oo ..... ooo ..... ooo ....  oo ..... ooo ..... oooooooooo",
"ooooooooooo ..... oo ...... oo ..... ooo ..... oo ..... ooo ..... oo ...... oo ..... ooo ..... oooooooooo",
"ooooooooooo ..... oo ..... ooo ..... ooo ..... oo ..... ooo ..... ooo ....  oo ..... ooo ..... oooooooooo",
"ooooooooooo  ... oooo .... oooo ... oooo  ... oooo ...  oooo ... oooo .... oooo ... oooo  ... ooooooooooo",
"ooooooooooooo   oooooo    oooooo   oooooo    oooooo    oooooo   oooooo    oooooo   ooooooo   oooooooooooo",
"ooooooooooooooooooooooooooooooooooooooooooooooooooooooooooooooooooooooooooooooooooooooooooooooooooooooooo",
"ooooooooooooooooooooooooooooooooooooooooooooooooooooooooooooooooooooooooooooooooooooooooooooooooooooooooo",
"ooooooooooooooooooooooooooooooooooooooooooooooooooooooooooooooooooooooooooooooooooooooooooooooooooooooooo",
"ooooooooooooooooooooooooooooooooooooooooooooooooooooooooooooooooooooooooooooooooooooooooooooooooooooooooo",
"ooooooooooooooooooooooooooooooooooooooooooooooooooooooooooooooooooooooooooooooooooooooooooooooooooooooooo",
"ooooooooooooooooooooooooooooooooooooooooooooooooooooooooooooooooooooooooooooooooooooooooooooooooooooooooo",
"ooooooooooooooooooooooooooooooooooooooooooooooooooooooooooooooooooooooooooooooooooooooooooooooooooooooooo",
"ooooooooooooooooooooooooooooooooooooooooooooooooooooooooooooooooooooooooooooooooooooooooooooooooooooooooo",
"ooooooooooooooooooooooooooooooooooooooooooooooooooooooooooooooooooooooooooooooooooooooooooooooooooooooooo",
"ooooooooooooooooooooooooooooooooooooooooooooooooooooooooooooooooooooooooooooooooooooooooooooooooooooooooo",
"ooooooooooooooooooooooooooooooooooooooooooooooooooooooooooooooooooooooooooooooooooooooooooooooooooooooooo"
};
