/* XPM */
static char * pixmap_rarrow[] = {
"22 22 70 1",
" 	c None",
".	c #0D3652",
"+	c #0D3D5C",
"@	c #010001",
"#	c #337F9E",
"$	c #80B6D0",
"%	c #98C7D9",
"&	c #DFEFF8",
"*	c #010101",
"=	c #1A415B",
"-	c #96C3D7",
";	c #A9CDDE",
">	c #FDFCFD",
",	c #0E3753",
"'	c #94C1D5",
")	c #DAEDF7",
"!	c #FEFBFE",
"~	c #C0DFEE",
"{	c #A7D7E7",
"]	c #59C3DA",
"^	c #DCEDF3",
"/	c #254A63",
"(	c #CDE1EC",
"_	c #8FCADA",
":	c #BCE2EC",
"<	c #CEE9F2",
"[	c #B5DEEC",
"}	c #7BC6DE",
"|	c #6BBED8",
"1	c #0EADCB",
"2	c #0E9FC4",
"3	c #30536B",
"4	c #E1EBF2",
"5	c #7FBDD5",
"6	c #3DB9D3",
"7	c #5FC0D6",
"8	c #44C0D7",
"9	c #24A9CB",
"0	c #0E91B8",
"a	c #0E91B7",
"b	c #0E9EC3",
"c	c #BCDEEB",
"d	c #DDEFF8",
"e	c #1B415C",
"f	c #DFEBF5",
"g	c #7CC9DE",
"h	c #0E95B7",
"i	c #0E87A9",
"j	c #0E8BAE",
"k	c #0E94B9",
"l	c #0E9DC2",
"m	c #0E8FB6",
"n	c #0E97BF",
"o	c #48DFE9",
"p	c #1CA2C3",
"q	c #106589",
"r	c #D3E5F0",
"s	c #8FCCE2",
"t	c #20C2D5",
"u	c #40D1DB",
"v	c #46DBE6",
"w	c #26C3D5",
"x	c #15C1DA",
"y	c #17ABD0",
"z	c #1F779C",
"A	c #14678D",
"B	c #116C92",
"C	c #137194",
"D	c #0F90B5",
"E	c #0EB0CD",
"                      ",
"                      ",
"          .           ",
"          +@          ",
"          +#@         ",
"          +$#@        ",
"          +%&#*       ",
"   ......=+-;>#@      ",
"   ,')!!!!~{]^>#@     ",
"   /(_:<[}|12]^>#@    ",
"   345678190ab]cd#@   ",
"   efghijklmnn]opq@   ",
"   .rstuvwxxyxopq@    ",
"   .zAAABCDnxopq@     ",
"   .@@@@@@+Eopq@      ",
"          +ppq@       ",
"          +#q@        ",
"          +q@         ",
"          +@          ",
"          +           ",
"                      ",
"                      "};
