/* XPM */
static char * pixmap_rltb[] = {
"16 16 2 1",
" 	c none",
".	c #000000000000",
"                ",
"                ",
"                ",
"                ",
"    ........    ",
"     .          ",
"      .         ",
"       .        ",
"        .       ",
"    .    .      ",
"   ..     .     ",
"  ..........    ",
"   ..           ",
"    .           ",
"                ",
"                "};
