/* XPM */
static char * gtklp_16x16_xpm[] = {
"16 16 4 1",
" 	c None",
".	c #0000FF",
"+	c #FF0000",
"-  c #00FFFF",
"                ",
"    ----        ",
"   -..++--      ",
"   -..++++-     ",
"   -..--+++-    ",
"   -..- -++-    ",
"   -..--+++-    ",
"   -..++++-     ",
"   -..++--      ",
"   -..--  -     ",
"   -..----.-    ",
"   -.......-    ",
"   -.......-    ",
"    -------     ",
"                ",
"                "};
