/* XPM */
static char * gtklp_24x24_xpm[] = {
"24 24 4 1",
" 	c None",
".	c #0000FF",
"+	c #FF0000",
"-  c #00FFFF",
"      --------          ",
"     -....++++-         ",
"     -....+++++-        ",
"     -....+++++++-      ",
"     -....++++++++-     ",
"     -....----+++++-    ",
"     -....-   -+++++-   ",
"     -....-    -++++-   ",
"     -....-    -++++-   ",
"     -....-   -+++++-   ",
"     -....----+++++-    ",
"     -....++++++++-     ",
"     -....+++++++-      ",
"     -....+++++-        ",
"     -....++++-         ",
"     -....----          ",
"     -....-       --    ",
"     -....-      -..-   ",
"     -....-      -..-   ",
"     -....-------...-   ",
"     -..............-   ",
"     -..............-   ",
"     -..............-   ",
"      --------------    "};
