/* XPM */
static char * gtklp_48x48_xpm[] = {
/* columns rows colors chars-per-pixel */
"48 48 71 1",
"  c #000000",
". c #0B0B0B",
"X c #131313",
"o c #1B1B1B",
"O c #232323",
"+ c #2C2C2C",
"@ c #333333",
"# c #3B3B3B",
"$ c #444444",
"% c #4B4B4B",
"& c #50504E",
"* c #515151",
"= c #585857",
"- c #5C5C5C",
"; c #62625C",
": c #646464",
"> c #6C6C6C",
", c #737373",
"< c #7C7C7C",
"1 c #5176E8",
"2 c #7CBEB6",
"3 c #7EBFB8",
"4 c #7EC0B8",
"5 c #90907F",
"6 c #838383",
"7 c #8C8C8B",
"8 c #959595",
"9 c #999999",
"0 c #A4A4A4",
"q c #ACACAC",
"w c #B4B4B4",
"e c #BBBBBB",
"r c #82C4BB",
"t c #86C8BE",
"y c #8CC1BB",
"u c #96C0BC",
"i c #BDC6B5",
"p c #8BCBC1",
"a c #9CDECF",
"s c #90ECE3",
"d c #9BEEE6",
"f c #A0C4C0",
"g c #A3EEE6",
"h c #A1EFE8",
"j c #A4F0E8",
"k c #ABF0EA",
"l c #B2F2EB",
"z c #BBF3ED",
"x c #F28A8A",
"c c #C2C8BC",
"v c #CCE4B6",
"b c #D3ECBF",
"n c #D6F2BF",
"m c #C3C3C3",
"M c #CBCBCB",
"N c #C5D2D1",
"B c #D3D3D3",
"V c #DBDBDB",
"C c #C2F3EE",
"Z c #C5F5F0",
"A c #CBF6F1",
"S c #D1F7F3",
"D c #D5F8F4",
"F c #DBF8F5",
"G c #E3E3E3",
"H c #EAEAEA",
"J c #E0F9F7",
"K c #E6FAF8",
"L c #F3F3F3",
"P c gray99",
"I c None",
/* pixels */
"IIIIIIIIIIIIIIIIIIIIIIIIIIIIIIIIIIIIIIIIIIIIIIII",
"IIIIIIIIIIIIIIIIIIIIIIIIIIIIIIIIIIIIIIIIIIIIIIII",
"IIIIIIIIIIIIIIIIIIIIIIIIIIIIIIIIIIIIIIIIIIIIIIII",
"IIIIIIIIIIIIIIIIIIIIIIIIIIIIIIIIIIIIIIIIIIIIIIII",
"IIIIIIIIIIIIIIIIIIIIIIIIIIIIIIIIIIIIIIIIIIIIIIII",
"IIIIIIIIIIIIIIIIIIIIIIIIIIIIIIIIIIIIIIIIIIIIIIII",
"IIIIIIIIIIIIIIIIIIIIIIIIIIIIIIIIIIIIIIIIIIIIIIII",
"IIIIIIIIIIIIIIIIIIIIIIIIII%;%IIIIIIIIIIIIIIIIIII",
"IIIIIIIIIIIIIIIIIIIIIIIII%ssss4244%IIIIIIIIIIIII",
"IIIIIIIIIIIIIIIIIIIIIIII2ssssssssssa422%IIIIIIII",
"IIIIIIIIIIIIIIIIIIIIIII%dds111ssssssssssp&%IIIII",
"IIIIIIIIIIIIIIIIIIIIII%ggdddssxxxssssssss5%IIIII",
"IIIIIIIIIIIIIIIIIIIIIulkk111ddsssssssssstIIIIIII",
"IIIIIIIIIIIIIIIIIIII%zzlzkkjjhdxxxsssssrIIIIIIII",
"IIIIIIIIIIIIIIIIIIIICCz111xkkkjjdddsss2IIIIIIIII",
"IIIIIIIIIIIIIIIIIII*SAAZZzzzlkxxxddddtIIIIIIIIII",
"IIIIIIIIIIIIIIIIIIIFFD111CZxxxlklkhhyIIIIIIIIIII",
"IIIIIIIIIIIIIIIIII&KJFFDSSACZCzzlllyIIIIIIIIIIII",
"IIIIIIIIIIIIIIIIII=KK111FFDSAZZZzzu  IIIIIIIIIII",
"IIIIIIIIIIIIIIIII KKKKKKFFF111SZAf*#ooX   IIIIII",
"IIIIIIIIIIIIII  O,KKKKK111KJFFDSA$wqq9*%  IIIIII",
"IIIIIIII   oXO%$#%NKKKKKKKK11JFF&mee0%#%-OXo III",
"IIIII +o@$,0mw>%OO@+@#-,KKKKKKK<MMmq%#%,wBBw@III",
"IIIII>GPPPPPPPPLPM:#++#@+@*<KKK%VBN%#7MBBe>$O II",
"IIIII-GHHGHLLPPPLPLLGq=#@+@O+@$00m<:BVBe>$#$XIII",
"IIIII$HHHHGGGGGHLLLLLHLHM7&@@$%++=<VBe:%#%**XIII",
"IIIII#HGGGGGVVVVVBVVGHLHHHHHe7#%MVBw-%$%%=%%XIII",
"IIIII$HGGGGVVVVVBBBBMMMBVHGGGGGVVw-%%*%*=%%%.III",
"IIIII%HGGVGVVVVBBBMMMMMMmmmMBVV9=*$%*%**&%%$.III",
"IIIII%GGGVVVVBBBBBBMMMmmbbbcee$=**%%&$&*%$$#XIII",
"IIIII+GVVVVVBBBMBMMMMmmminbv9e$=*%%&&%*%$$$#.III",
"IIIII+GVVVBVBBBBMMMMMmmmq8770w$**%%*$&%%$$$# III",
"IIIII+VVVVBBBBMMMMmMmmmmemw00w$%$$*$%%%$$$+X III",
"IIIII+VVBBBBBMMMMMmmmmemewewww#%%#%$%%$$%X. IIII",
"IIIII VBVBBBMMMMMmmeemeeeewww0$$%$%%%$%#. IIIIII",
"IIIII 9MBBMMMMMMmmmmeeewwwwwq0#$%%%%$$X  IIIIIII",
"IIIIII$$*,qMMMMmmmememeewwwqw7#$$$%%+. IIIIIIIII",
"IIIIIIII  +#%,wmmmeeewwwwwwqq6##$%$X. IIIIIIIIII",
"IIIIIIIIIIII  O#%<0wwwwwwwqwq<#$%+. IIIIIIIIIIII",
"IIIIIIIIIIIIIIII  @#*>6qwqq00<$#X. IIIIIIIIIIIII",
"IIIIIIIIIIIIIIIIIIII  @@$-<00=o. IIIIIIIIIIIIIII",
"IIIIIIIIIIIIIIIIIIIIIIII $##-OO IIIIIIIIIIIIIIII",
"IIIIIIIIIIIIIIIIIIIIIIIIIIII IIIIIIIIIIIIIIIIIII",
"IIIIIIIIIIIIIIIIIIIIIIIIIIIIIIIIIIIIIIIIIIIIIIII",
"IIIIIIIIIIIIIIIIIIIIIIIIIIIIIIIIIIIIIIIIIIIIIIII",
"IIIIIIIIIIIIIIIIIIIIIIIIIIIIIIIIIIIIIIIIIIIIIIII",
"IIIIIIIIIIIIIIIIIIIIIIIIIIIIIIIIIIIIIIIIIIIIIIII",
"IIIIIIIIIIIIIIIIIIIIIIIIIIIIIIIIIIIIIIIIIIIIIIII"
};
