/* XPM */
static char *gtklp_64x64_xpm[] = {
/* columns rows colors chars-per-pixel */
"64 64 253 2",
"   c #000000",
".  c #0C0B0B",
"X  c #0E1615",
"o  c #100E0E",
"O  c #141414",
"+  c #131A19",
"@  c #1C1C1C",
"#  c #1C2826",
"$  c #1C2928",
"%  c #242424",
"&  c #222927",
"*  c #292726",
"=  c #2C2C2C",
"-  c #33302E",
";  c #333333",
":  c #3A3734",
">  c #3C3D3D",
",  c #36413F",
"<  c #2D4442",
"1  c #304845",
"2  c #3B4241",
"3  c #355450",
"4  c #444444",
"5  c #4B4B4B",
"6  c #48504E",
"7  c #4C5251",
"8  c #4F5F5D",
"9  c #51514F",
"0  c #525252",
"q  c #5B5B5B",
"w  c #48625C",
"e  c #5C6060",
"r  c #537471",
"t  c #557F79",
"y  c #636363",
"u  c #666B6A",
"i  c #6A6A63",
"p  c #6C6B6B",
"a  c #6C7373",
"s  c #747468",
"d  c #747474",
"f  c #757C7B",
"g  c #7C7C7C",
"h  c #5C8781",
"j  c #5D8A84",
"k  c #5C8E88",
"l  c #678883",
"z  c #688683",
"x  c #688A85",
"c  c #6D8F8A",
"v  c #66958D",
"b  c #6D908D",
"n  c #669892",
"m  c #6C9590",
"M  c #7F8584",
"N  c #7C8B88",
"B  c #74968F",
"V  c #769692",
"C  c #6CA59E",
"Z  c #6DA8A0",
"A  c #71AAA2",
"S  c #7DB9B1",
"D  c #5A85E7",
"F  c #5C84EA",
"G  c #6185E9",
"H  c #6488EA",
"J  c #659BE6",
"K  c #7597EB",
"L  c #769CEB",
"P  c #6BA8E6",
"I  c #70A2E1",
"U  c #70ABE6",
"Y  c #7CA2EB",
"T  c #78ADE8",
"R  c #7FC4BC",
"E  c #838383",
"W  c #878E8D",
"Q  c #8C8B8B",
"!  c #819693",
"~  c #849D9B",
"^  c #939393",
"/  c #949B99",
"(  c #9C9C9C",
")  c #9FA29C",
"_  c #86B7AD",
"`  c #83BCB0",
"'  c #9BA4A3",
"]  c #9BACAB",
"[  c #A2AC9A",
"{  c #A7B19F",
"}  c #A3A3A3",
"|  c #A8A7A8",
" . c #ACACAC",
".. c #ADB4A6",
"X. c #A6B2B1",
"o. c #ABB5B3",
"O. c #AFBDBB",
"+. c #B4B4B4",
"@. c #B4BFBE",
"#. c #BCBCBC",
"$. c #948BC9",
"%. c #80A3EC",
"&. c #85ACEC",
"*. c #89ACED",
"=. c #92B1EE",
"-. c #80C6BD",
";. c #89C2B6",
":. c #ABC0BD",
">. c #B6C3BF",
",. c #B8C7BF",
"<. c #85CBC3",
"1. c #89CEC3",
"2. c #84D3CA",
"3. c #8BDCD3",
"4. c #9DCBC7",
"5. c #96D6CF",
"6. c #93DDD4",
"7. c #9DD6D0",
"8. c #9EDED6",
"9. c #85C2EA",
"0. c #84C8E6",
"q. c #8BC2EA",
"w. c #8EDCE5",
"e. c #99C0ED",
"r. c #9FCDED",
"t. c #93DDE6",
"y. c #9BD7EA",
"u. c #8CE1D7",
"i. c #8DE6DC",
"p. c #8FE9DF",
"a. c #94E5DC",
"s. c #9CE0D7",
"d. c #9BE1D9",
"f. c #87E6E7",
"g. c #8BE2E3",
"h. c #8FEDE3",
"j. c #8DF2E7",
"k. c #92E6E4",
"l. c #91EDE3",
"z. c #99E4E7",
"x. c #9BEDE5",
"c. c #95F1E6",
"v. c #9AF2E6",
"b. c #9EF2E9",
"n. c #ABC0C5",
"m. c #AECCC9",
"M. c #A3C6DB",
"N. c #A7D4CD",
"B. c #AAD5CD",
"V. c #A0DED7",
"C. c #ACDDD8",
"Z. c #B1CBC4",
"A. c #B9C5C2",
"S. c #BACAC8",
"D. c #A3C4EF",
"F. c #A5C3F0",
"G. c #AAC5F1",
"H. c #ADD6EF",
"J. c #AAD8EE",
"K. c #B2CBF2",
"L. c #B8D1F4",
"P. c #BDDAF3",
"I. c #A0E1DA",
"U. c #ABE3DC",
"Y. c #B6E5DF",
"T. c #A6EDE5",
"R. c #A4EFE8",
"E. c #ADE1ED",
"W. c #AAECE6",
"Q. c #A8EFE8",
"!. c #A0F0E6",
"~. c #A3F0E8",
"^. c #ABF2EB",
"/. c #B4E2EC",
"(. c #B4EBE3",
"). c #B9E6E0",
"_. c #BBECE6",
"`. c #BEEAF0",
"'. c #B3F3EC",
"]. c #BAF3ED",
"[. c #B1F8F1",
"{. c #CFACA9",
"}. c #D0ABA7",
"|. c #D5ACA9",
" X c #DBA3A1",
".X c #DDABA9",
"XX c #D9B0AD",
"oX c #DAB6B4",
"OX c #E69594",
"+X c #E89695",
"@X c #E1A4A3",
"#X c #E4ABAA",
"$X c #E0B7B5",
"%X c #C0CAB8",
"&X c #C5D0BB",
"*X c #CBE1B7",
"=X c #CEE2BD",
"-X c #D0E6BE",
";X c #D4EEBE",
":X c #D5F0BF",
">X c #C4C4C4",
",X c #C7C7C8",
"<X c #C6C9C4",
"1X c #C4CDC9",
"2X c #CCC6C3",
"3X c #C9CCC4",
"4X c #CCCCCC",
"5X c #CFCED0",
"6X c #C5D1CA",
"7X c #C9D3C1",
"8X c #C1DAD7",
"9X c #D0CFD1",
"0X c #D3D3D3",
"qX c #DBDBDB",
"wX c #C0D8F3",
"eX c #CFE0DE",
"rX c #D0E0DE",
"tX c #C1E6E1",
"yX c #C1EBE7",
"uX c #C1EDEC",
"iX c #CAEBE7",
"pX c #C5E5F3",
"aX c #C4EBF1",
"sX c #CCEAF4",
"dX c #C2F3EE",
"fX c #C7F8EF",
"gX c #CDF2EE",
"hX c #C6F5F0",
"jX c #C3FAF2",
"kX c #CBF6F1",
"lX c #CDF9F3",
"zX c #D2E2E1",
"xX c #D8E9E7",
"cX c #DEEFEE",
"vX c #D1E7F5",
"bX c #D4EBF5",
"nX c #D3F6F4",
"mX c #D5F8F4",
"MX c #DEF4F6",
"NX c #DCF9F5",
"BX c #DEFCF9",
"VX c #E3E3E3",
"CX c #E2EFEC",
"ZX c #EBEBEB",
"AX c #E6F3F2",
"SX c #E4F7FC",
"DX c #E4FAF7",
"FX c #E7FBF9",
"GX c #EBFEFB",
"HX c #F3F3F3",
"JX c #F1FFFE",
"KX c #FAFAFA",
"LX c None",
/* pixels */
"LXLXLXLXLXLXLXLXLXLXLXLXLXLXLXLXLXLXLXLXLXLXLXLXLXLXLXLXLXLXLXLXLXLXLXLXLXLXLXLXLXLXLXLXLXLXLXLXLXLXLXLXLXLXLXLXLXLXLXLXLXLXLXLX",
"LXLXLXLXLXLXLXLXLXLXLXLXLXLXLXLXLXLXLXLXLXLXLXLXLXLXLXLXLXLXLXLXLXLXLXLXLXLXLXLXLXLXLXLXLXLXLXLXLXLXLXLXLXLXLXLXLXLXLXLXLXLXLXLX",
"LXLXLXLXLXLXLXLXLXLXLXLXLXLXLXLXLXLXLXLXLXLXLXLXLXLXLXLXLXLXLXLXLXLXLXLXLXLXLXLXLXLXLXLXLXLXLXLXLXLXLXLXLXLXLXLXLXLXLXLXLXLXLXLX",
"LXLXLXLXLXLXLXLXLXLXLXLXLXLXLXLXLXLXLXLXLXLXLXLXLXLXLXLXLXLXLXLXLXLXLXLXLXLXLXLXLXLXLXLXLXLXLXLXLXLXLXLXLXLXLXLXLXLXLXLXLXLXLXLX",
"LXLXLXLXLXLXLXLXLXLXLXLXLXLXLXLXLXLXLXLXLXLXLXLXLXLXLXLXLXLXLXLXLXLXLXLXLXLXLXLXLXLXLXLXLXLXLXLXLXLXLXLXLXLXLXLXLXLXLXLXLXLXLXLX",
"LXLXLXLXLXLXLXLXLXLXLXLXLXLXLXLXLXLXLXLXLXLXLXLXLXLXLXLXLXLXLXLXLXLXLXLXLXLXLXLXLXLXLXLXLXLXLXLXLXLXLXLXLXLXLXLXLXLXLXLXLXLXLXLX",
"LXLXLXLXLXLXLXLXLXLXLXLXLXLXLXLXLXLXLXLXLXLXLXLXLXLXLXLXLXLXLXLXLXLXLXLXLXLXLXLXLXLXLXLXLXLXLXLXLXLXLXLXLXLXLXLXLXLXLXLXLXLXLXLX",
"LXLXLXLXLXLXLXLXLXLXLXLXLXLXLXLXLXLXLXLXLXLXLXLXLXLXLXLXLXLXLXLXLXLXLXLXLXLXLXLXLXLXLXLXLXLXLXLXLXLXLXLXLXLXLXLXLXLXLXLXLXLXLXLX",
"LXLXLXLXLXLXLXLXLXLXLXLXLXLXLXLXLXLXLXLXLXLXLXLXLXLXLXLXLXLXLXLXLXLX            LXLXLXLXLXLXLXLXLXLXLXLXLXLXLXLXLXLXLXLXLXLXLXLX",
"LXLXLXLXLXLXLXLXLXLXLXLXLXLXLXLXLXLXLXLXLXLXLXLXLXLXLXLXLXLXLXLXLXLXo = : - @   LXLXLXLXLXLXLXLXLXLXLXLXLXLXLXLXLXLXLXLXLXLXLXLX",
"LXLXLXLXLXLXLXLXLXLXLXLXLXLXLXLXLXLXLXLXLXLXLXLXLXLXLXLXLXLXLXLX  . , x B c r 3 1 < < < < & o   LXLXLXLXLXLXLXLXLXLXLXLXLXLXLXLX",
"LXLXLXLXLXLXLXLXLXLXLXLXLXLXLXLXLXLXLXLXLXLXLXLXLXLXLXLXLXLXLX  X 2 b l.l.l.h.i.1.R R R R x 2 + + + + + .   LXLXLXLXLXLXLXLXLXLX",
"LXLXLXLXLXLXLXLXLXLXLXLXLXLXLXLXLXLXLXLXLXLXLXLXLXLXLXLXLXLXLXX k -.u.h.h.h.h.h.p.p.i.i.i.u.1.` Z C C n 5 + LX      LXLXLXLXLXLX",
"LXLXLXLXLXLXLXLXLXLXLXLXLXLXLXLXLXLXLXLXLXLXLXLXLXLXLXLXLXLX. 2 <.c.c.g.P J J U f.j.j.h.h.j.c.a.i.u.u.3.` v w - = X LXLXLXLXLXLX",
"LXLXLXLXLXLXLXLXLXLXLXLXLXLXLXLXLXLXLXLXLXLXLXLXLXLXLXLX  . , V d.b.v.k.U J J I n.,.,.Z.k.h.j.h.h.h.h.h.c.l._ i 9 @ LXLXLXLXLXLX",
"LXLXLXLXLXLXLXLXLXLXLXLXLXLXLXLXLXLXLXLXLXLXLXLXLXLXLX  X 4 V ~.R.z.t.w.w.k.h.d. XOXOX Xd.h.h.h.h.h.h.h.l.l.;.s 4 O LXLXLXLXLXLX",
"LXLXLXLXLXLXLXLXLXLXLXLXLXLXLXLXLXLXLXLXLXLXLXLXLXLXLXO b 4.U.^.^.T D D D 0.c.x.s.8.8.s.l.h.h.h.l.h.l.h.h.3.h O .   LXLXLXLXLXLX",
"LXLXLXLXLXLXLXLXLXLXLXLXLXLXLXLXLXLXLXLXLXLXLXLXLXLX. > 4.].].'.'.y.q.0.q.t.!.x.v.A.}.{.}.N.h.h.h.h.h.l.3.t #   LXLXLXLXLXLXLXLX",
"LXLXLXLXLXLXLXLXLXLXLXLXLXLXLXLXLXLXLXLXLXLXLXLXLXLX= ! (.jXE.q.q.9.M.6X(.^.R.R.b.>X|.|.|.B.j.k.l.h.l.2.h $ LXLXLXLXLXLXLXLXLXLX",
"LXLXLXLXLXLXLXLXLXLXLXLXLXLXLXLXLXLXLXLXLXLXLXLX    8 dXhXhXr.G G F $.@XY.^.^.Q.U.U.C.U.x.x.x.l.l.l.2.k X LXLXLXLXLXLXLXLXLXLXLX",
"LXLXLXLXLXLXLXLXLXLXLXLXLXLXLXLXLXLXLXLXLXLXLXLX  * N lXlXgXuX/./.E./.tX].'.'.Y.@X+X+X XU.b.x.x.x.6.j X   LXLXLXLXLXLXLXLXLXLXLX",
"LXLXLXLXLXLXLXLXLXLXLXLXLXLXLXLXLXLXLXLXLXLXLXLX  a 8XmXnXe.L L Y J.jXyXoX.X.X|.2X2X2X1XW.R.R.x.6.t #   LXLXLXLXLXLXLXLXLXLXLXLX",
"LXLXLXLXLXLXLXLXLXLXLXLXLXLXLXLXLXLXLXLXLXLXLX  + ] GXNXNXD.%.%.Y J.lXiX$X#X#XoX_.[.[.^.^.^.Q.5.l # LXLXLXLXLXLXLXLXLXLXLXLXLXLX",
"LXLXLXLXLXLXLXLXLXLXLXLXLXLXLXLXLXLXLXLXLXLXLX. 4 O.GXNXsXpXpXpXnXnXlXlXhXhXhXdX].].].].].Q.7.b X LXLXLXLXLXLXLXLXLXLXLXLXLXLXLX",
"LXLXLXLXLXLXLXLXLXLXLXLXLXLXLXLXLXLXLXLXLXLXLX. 5 >.JXbXK G G K pXNXmXmXhXlXhXhXhXdX].].].C.z O   LX              LXLXLXLXLXLXLX",
"LXLXLXLXLXLXLXLXLXLXLXLXLXLXLXLXLXLXLXLXLXLX  + ' xXFXMXK.G.G.L.NXDXDXaX&.L L &.uXhXhX].C.~ 7 @ . . . .           LXLXLXLXLXLXLX",
"LXLXLXLXLXLXLXLXLXLXLXLXLXLXLXLXLXLX      . O 4 zXJXFXFXJXGXbXK.G.F.P.bX=.%.Y *.pXnXlX_.~ f p p 9 0 2 * @ .       LXLXLXLXLXLXLX",
"LXLXLXLXLXLXLXLXLXLX                  . . @ > g zXFXFXFXFXFXL.H H G =.DXsXpXsXNXmXnXgXm.u Q +. .| ( d 0 5 % .             LXLXLX",
"LXLXLXLXLXLX      LX        . O O @ * 2 > > > e A.cXDXDXDXFXMXvXvXvXMXbXK F =.SXNXBXO.a } #.#.+.} d 5 2 5 9 > @ X O .     LXLXLX",
"LXLXLXLXLXLX    O X . @ % ; 0 d E g d q 4 - * ; e a f g f Q / o.AXJXJXSXL.G.P.DXDXS.' } >X>X#.| d 5 > 4 q E / ^ Q Q y %   LXLXLX",
"LXLXLXLXLXLX. = i p d E Q ( +.0XqXqX>X( Q g p q > = * * * > 9 y ' X.o.@.1XCXJXGXGX/ Q 0X9X5X+.E 5 5 y g ^ +.4X5X#.} p * . LXLXLX",
"LXLXLXLXLXLX% d 0XHXHXKXKXKXKXKXKXKXKXKXKXKXZX>XE q 5 4 > > > ; - - > 0 p o.eXeXzXE g 0X0X,X^ 9 9 g  .,X0X4X#.} d 9 ; @   LXLXLX",
"LXLXLXLXLXLX@ d 0XZXZXZXZXZXHXHXKXKXKXKXKXKXKXZXVXqX0X>X} p 4 > ; = - ; - > 5 7 q g (  .>X} d p #.9X5X0X>X^ y 0 4 5 ; o   LXLXLX",
"LXLXLXLXLXLX@ y 0XZXZXVXZXZXVXZXZXZXZXZXZXHXHXKXKXKXKXZXqX>X+.| ^ f q > & * ; ; 4 0 0 q d d Q +.qX0X+.Q d 0 4 4 5 5 > o   LXLXLX",
"LXLXLXLXLXLXO 0 0XZXVXZXVXVXVXqXqXqXqXqXVXVXVXZXZXZXZXZXHXHXHXZXqX>X} E d p y 0 4 ; > y E ^ +.4X .( g 9 5 4 4 5 9 0 > O   LXLXLX",
"LXLXLXLXLXLXo 0 0XZXZXVXVXVXVXVXVXqXqXqXqXqXqXqX0X0XqXxXZXZXZXZXZXZXVXVXVX5X+.^ q 0 E 5X9X9X#.( y 9 5 4 5 5 0 0 5 5 ; o . LXLXLX",
"LXLXLXLXLXLXO q 0XZXVXVXVXVXqXqXqXqXqXqXqX0X0X0X0X0X0X9X0X9X0XqXrXVXZXZXVXVXqX0X4X,X9X0X#.Q y q 5 5 0 5 5 0 0 5 5 5 ; .   LXLXLX",
"LXLXLXLXLXLX@ e 0XZXVXVXqXVXVXqXqXqXqX0X0X0X0X0X0X0X5X4X4X4X4X4X9X4X4X0X0XqXqXVXVX4X} E d q 4 5 5 5 5 5 0 0 0 5 5 5 = .   LXLXLX",
"LXLXLXLXLXLXO e 4XZXVXqXVXqXqXqXqXqXqX0X0X0X0X9X9X9X4X4X4X,X,X<X7X7X7X7X>X4X5X4X| Q p 9 5 4 4 5 0 5 5 9 0 0 5 5 4 4 - .   LXLXLX",
"LXLXLXLXLXLXO q 4XZXVXqXqXqXqXqX0XqX0X0X0X0X9X5X5X5X4X,X,X,X,X<X-X:X:X7X&X#.#. .0 5 0 0 5 9 5 5 0 5 4 0 5 5 5 4 4 2 = o   LXLXLX",
"LXLXLXLXLXLX. 5 ,XZXqXqXqXqXqX0X0XqX0X0X9X9X7X9X4X4X4X,X,X,X,X>X%X-X:X;X*X..| | 0 9 0 0 5 9 5 9 5 5 5 9 9 5 4 4 4 > * .   LXLXLX",
"LXLXLXLXLXLX. 4 ,XVXqXqXqXqXqX0X0X0X0X9X9X9X5X5X4X4X,X,X,X>X>X>X+...{ [ [ )  .| 0 5 0 0 5 5 9 9 5 5 5 5 5 4 4 4 4 4 =     LXLXLX",
"LXLXLXLXLXLX. 4 >XVXqXqXqXqX0XqX0X0X0X5X0X4X3X4X,X,X,X,X>X>X#.#.+.| ( ^ ^ (  .} 0 4 9 5 4 5 5 5 4 5 9 5 4 4 4 4 > ; %     LXLXLX",
"LXLXLXLXLXLX. 4 2XqXqXqX0X0X0X0X0X0X5X5X4X4X4X2X,X,X,X>X>X>X>X#.oX#.#.+. . .o.( 0 4 5 4 4 5 5 4 5 5 5 4 4 4 > > = @ .     LXLXLX",
"LXLXLXLXLXLX. 4 >XqXqXqX0X0X0X0X0X4X4X4X4X4X<X>X,X,X>X>X>X#.oX#.@.@.#.+.+.+.+.} 5 4 5 5 > 5 5 4 5 5 4 4 4 4 > @ X         LXLXLX",
"LXLXLXLXLXLX  = >XrX0X0X0X0X0X0X4X0X4X4X4X4X4X>X>X>X>X#.>X@.@.#.#.+.+.#.#.+.+.( 0 > 4 5 4 4 5 5 5 4 4 5 > = O .     LXLXLXLXLXLX",
"LXLXLXLXLXLX  @ | 0XqX0X0X0X0X4X4X4X4X,X,X4X>X>X>X#.>X>X#.#.#.#.#.#.+.+.+.+. .( 5 > 4 4 5 5 5 5 5 4 4 ; * .       LXLXLXLXLXLXLX",
"LXLXLXLXLXLX  X g  .#.>X>X4X4X0X4X4X4X4X>X,X>X>X>X>X#.#.#.#.#.#.+.+.+.+.+.o. .^ 5 > 4 5 4 5 5 4 4 > - o .       LXLXLXLXLXLXLXLX",
"LXLXLXLXLXLX  . 4 0 q u g ( oXS.4X4X4X,X>X>X>X>X#.#.#.#.#.#.+.#.+.+.+.+.+.o.| E 4 > 4 4 4 5 4 4 ; @ .           LXLXLXLXLXLXLXLX",
"LXLXLXLXLXLXLX  O O O @ % 4 y f g Q | #.>X4X>X>X>X#.#.#.#.#.+.+.+.+. .+. . .} E 4 > 4 4 4 5 > % + .       LXLXLXLXLXLXLXLXLXLXLX",
"LXLXLXLXLXLXLXLXLXLXLX    o @ % * > y E ^ ^ } | +.#.#.#.#.+.+.+.+.+.+. . . .} d 4 > 4 4 4 : % . .   LXLXLXLXLXLXLXLXLXLXLXLXLXLX",
"LXLXLXLXLXLXLXLXLXLXLX              . % = > 0 d ^ } |  . . .o.+. .+.+. . . .( d 4 > 4 > * O .     LXLXLXLXLXLXLXLXLXLXLXLXLXLXLX",
"LXLXLXLXLXLXLXLXLXLXLXLXLXLXLX            . . O : 4 0 q p E ( |  .+. . .|  ./ p 5 > ; @ X         LXLXLXLXLXLXLXLXLXLXLXLXLXLXLX",
"LXLXLXLXLXLXLXLXLXLXLXLXLXLXLXLXLXLXLXLX        . X O @ % 4 q y p d E ^ |  .^ q ; % @       LXLXLXLXLXLXLXLXLXLXLXLXLXLXLXLXLXLX",
"LXLXLXLXLXLXLXLXLXLXLXLXLXLXLXLXLXLXLXLXLXLXLXLXLXLXLX    O @ @ % > q i g Q d > % o       LXLXLXLXLXLXLXLXLXLXLXLXLXLXLXLXLXLXLX",
"LXLXLXLXLXLXLXLXLXLXLXLXLXLXLXLXLXLXLXLXLXLXLXLXLXLXLX            % : ; ; 4 4 @ @ .       LXLXLXLXLXLXLXLXLXLXLXLXLXLXLXLXLXLXLX",
"LXLXLXLXLXLXLXLXLXLXLXLXLXLXLXLXLXLXLXLXLXLXLXLXLXLXLXLXLXLXLXLX  . .   . . .       LXLXLXLXLXLXLXLXLXLXLXLXLXLXLXLXLXLXLXLXLXLX",
"LXLXLXLXLXLXLXLXLXLXLXLXLXLXLXLXLXLXLXLXLXLXLXLXLXLXLXLXLXLXLXLXLXLXLXLXLXLXLXLXLXLXLXLXLXLXLXLXLXLXLXLXLXLXLXLXLXLXLXLXLXLXLXLX",
"LXLXLXLXLXLXLXLXLXLXLXLXLXLXLXLXLXLXLXLXLXLXLXLXLXLXLXLXLXLXLXLXLXLXLXLXLXLXLXLXLXLXLXLXLXLXLXLXLXLXLXLXLXLXLXLXLXLXLXLXLXLXLXLX",
"LXLXLXLXLXLXLXLXLXLXLXLXLXLXLXLXLXLXLXLXLXLXLXLXLXLXLXLXLXLXLXLXLXLXLXLXLXLXLXLXLXLXLXLXLXLXLXLXLXLXLXLXLXLXLXLXLXLXLXLXLXLXLXLX",
"LXLXLXLXLXLXLXLXLXLXLXLXLXLXLXLXLXLXLXLXLXLXLXLXLXLXLXLXLXLXLXLXLXLXLXLXLXLXLXLXLXLXLXLXLXLXLXLXLXLXLXLXLXLXLXLXLXLXLXLXLXLXLXLX",
"LXLXLXLXLXLXLXLXLXLXLXLXLXLXLXLXLXLXLXLXLXLXLXLXLXLXLXLXLXLXLXLXLXLXLXLXLXLXLXLXLXLXLXLXLXLXLXLXLXLXLXLXLXLXLXLXLXLXLXLXLXLXLXLX",
"LXLXLXLXLXLXLXLXLXLXLXLXLXLXLXLXLXLXLXLXLXLXLXLXLXLXLXLXLXLXLXLXLXLXLXLXLXLXLXLXLXLXLXLXLXLXLXLXLXLXLXLXLXLXLXLXLXLXLXLXLXLXLXLX",
"LXLXLXLXLXLXLXLXLXLXLXLXLXLXLXLXLXLXLXLXLXLXLXLXLXLXLXLXLXLXLXLXLXLXLXLXLXLXLXLXLXLXLXLXLXLXLXLXLXLXLXLXLXLXLXLXLXLXLXLXLXLXLXLX"
};
