/* XPM */
static char * pixmap_gtklpq_stop_jobs[] = {
"32 32 106 2",
"  	c None",
". 	c #020204",
"+ 	c #FEDEAC",
"@ 	c #FED294",
"# 	c #000000",
"$ 	c #FEDEA4",
"% 	c #FEBE7C",
"& 	c #FECA8C",
"* 	c #151514",
"= 	c #F0EAA3",
"- 	c #1D1907",
"; 	c #1B1808",
"> 	c #8A8A88",
", 	c #FEAA5C",
"' 	c #E2E2E4",
") 	c #D2D2D4",
"! 	c #CACACC",
"~ 	c #925E34",
"{ 	c #C9B050",
"] 	c #EBDB78",
"^ 	c #EEEEEC",
"/ 	c #D6D6D4",
"( 	c #4A4A4C",
"_ 	c #323234",
": 	c #EBD36E",
"< 	c #F5E890",
"[ 	c #FFFFFF",
"} 	c #ECECEB",
"| 	c #7F6E3C",
"1 	c #999999",
"2 	c #FCFCFC",
"3 	c #EAEAEC",
"4 	c #C6C6C4",
"5 	c #BEBEBC",
"6 	c #B59F48",
"7 	c #EBD264",
"8 	c #EFE48E",
"9 	c #F2EB9B",
"0 	c #F8F8F5",
"a 	c #C2C2C4",
"b 	c #A79446",
"c 	c #EDD260",
"d 	c #ECD365",
"e 	c #F0DE7E",
"f 	c #F4E488",
"g 	c #F4F4F2",
"h 	c #B6B6B4",
"i 	c #C9AF50",
"j 	c #D5B751",
"k 	c #DCC261",
"l 	c #FCEE8F",
"m 	c #FEDAA4",
"n 	c #333333",
"o 	c #9699A7",
"p 	c #F3E187",
"q 	c #EEE8A4",
"r 	c #F1F1EE",
"s 	c #111111",
"t 	c #AAAAAC",
"u 	c #E5CA5E",
"v 	c #EDE390",
"w 	c #F6F6F5",
"x 	c #D5D5D3",
"y 	c #C5C5C3",
"z 	c #CEB757",
"A 	c #CACAC6",
"B 	c #C3C3C0",
"C 	c #FF6666",
"D 	c #FEFE00",
"E 	c #B9B9B5",
"F 	c #ACACA9",
"G 	c #F3D664",
"H 	c #B3B3AF",
"I 	c #9A9A9C",
"J 	c #E0C85C",
"K 	c #DDDDDD",
"L 	c #BBBBBB",
"M 	c #AFAFAE",
"N 	c #ABABA9",
"O 	c #A6A6A4",
"P 	c #989899",
"Q 	c #8D8D90",
"R 	c #A5A5A3",
"S 	c #969693",
"T 	c #8C8C8F",
"U 	c #A0A09D",
"V 	c #979795",
"W 	c #89898C",
"X 	c #FEB66C",
"Y 	c #9F9F9D",
"Z 	c #87878A",
"` 	c #838487",
" .	c #898987",
"..	c #989895",
"+.	c #868683",
"@.	c #929292",
"#.	c #767674",
"$.	c #DE924C",
"%.	c #212120",
"&.	c #868684",
"*.	c #7E7E7C",
"=.	c #828284",
"-.	c #1A1A1B",
";.	c #727274",
">.	c #403A37",
",.	c #965E34",
"            . . .                                               ",
"          . + + @ . .                                           ",
"          # + + + $ @ . .                                       ",
"          # @ @ # % & & @ . .                                   ",
"  *       # % # = # # % & & @ - ;     . . .                     ",
"# > # #   # , # = = = # # % & & @ . . @ @ @ . .                 ",
"# ' ) ! # # ~ # { ] = = = # # % & & $ $ $ $ $ @ . .             ",
"# ) ^ ^ / ) ( _ # { : < = = = # # % & & $ $ $ $ $ @ .           ",
"# ) [ [ } } / / ( _ | 1 # 1 # 1 = # # % & & + $ $ $ .           ",
"  # } [ 2 [ ^ 3 4 5 # ( 6 7 8 9 # 1 = # # % & & + $ @ .         ",
"  # ' [ [ 2 [ 0 ' 1 a # | b c d e f # = = # # % & + + .         ",
"  # ) [ [ [ 0 g ^ # ! h ( _ | i j _ 1 k l = = # % & m .         ",
"  # ! [ [ 0 g n n n n n ! h ( _ | o _ # | 7 p q # & m .         ",
"    # ^ 0 g r n s s s n ) ! a h _ 5 t 1 _ | u v # & m .         ",
"    # ' w r n s s # s s n x ! 4 4 y h t # _ z v # % m .         ",
"    # ) n n s # # # s # s n n A B 5 h t 1 _ | C # % m .       D ",
"    # n s s # # # # # # # s s n 5 E h F # _ | G # % @ D     C   ",
"    n s # # # # # # # # # # # s n h H F I 1 | J D % @ .         ",
"    n s # # # # # # K L 1 # # s n h M N I # _ | # C @ . D       ",
"  n s # # # # # # # # K L 1 # # s n N O P Q 1 | # % @ .         ",
"  n s # # # # # # # # # # # # # s n O R S T _ # 1 # & C   D   C ",
"  n s # # # # # # # # # K L 1 # s n R U V W _ | # X & .         ",
"  n s # # # # # # # # # K L 1 # s n R Y V Z ` _ D X % . D       ",
"  n s # # # # # # # # # K L 1 # s n Y V S >  ._ # X C .   C     ",
"  n s # # # # # # # # K L 1 # # s n P ....T +.C # , % .         ",
"  n s # # # # # # # # K L 1 # # s n ......@.D _ # , D .       D ",
"    n s # # # # # # K L 1 # # s n W T S S @.Z #._ $.X . .       ",
"    n s # # # # # # # # # # # s n %.#.&.&.T Z #._ $.C . . . .   ",
"      n s s # # # # # # # s s n     # # #.*.=.#._ ~ , . . . . . ",
"        n n s s s s s s s n n           # -.;.#._ ~ $.. . . .   ",
"            n n n n n n n                   # %.>.~ ,.. .       ",
"                                                # . .           "};
