/* XPM */
static char * pixmap_gtklpq_accept_job[] = {
"32 32 211 2",
"  	c None",
". 	c #5757B0",
"+ 	c #7070E1",
"@ 	c #7F7FFF",
"# 	c #6E6EE1",
"$ 	c #5151B0",
"% 	c #7777FF",
"& 	c #6262E1",
"* 	c #4747B0",
"= 	c #7979FF",
"- 	c #7171FF",
"; 	c #6969FF",
"> 	c #5656E1",
", 	c #3D3DB0",
"' 	c #5555B0",
") 	c #6565E1",
"! 	c #6B6BFF",
"~ 	c #6363FF",
"{ 	c #5B5BFF",
"] 	c #4A4AE1",
"^ 	c #3434B0",
"/ 	c #5656B0",
"( 	c #5959D0",
"_ 	c #5959E1",
": 	c #5D5DFF",
"< 	c #5555FF",
"[ 	c #4E4EFF",
"} 	c #3E3EE1",
"| 	c #3333D0",
"1 	c #2626B0",
"2 	c #1F1FB0",
"3 	c #1B1BB0",
"4 	c #1515B0",
"5 	c #1010B0",
"6 	c #6161D0",
"7 	c #5B5BE1",
"8 	c #5454E1",
"9 	c #5757FF",
"0 	c #5050FF",
"a 	c #4848FF",
"b 	c #4040FF",
"c 	c #3838FF",
"d 	c #2A2AE1",
"e 	c #2424E1",
"f 	c #1D1DE1",
"g 	c #1414D0",
"h 	c #09098E",
"i 	c #000000",
"j 	c #CBC9CB",
"k 	c #4949B0",
"l 	c #5050D0",
"m 	c #4F4FE1",
"n 	c #5252FF",
"o 	c #4A4AFF",
"p 	c #4242FF",
"q 	c #3A3AFF",
"r 	c #3232FF",
"s 	c #2A2AFF",
"t 	c #2323FF",
"u 	c #1818E1",
"v 	c #1010D0",
"w 	c #06068E",
"x 	c #BFBEBF",
"y 	c #E6E5E6",
"z 	c #C9C7C9",
"A 	c #3A3AB0",
"B 	c #3E3ED0",
"C 	c #3C3CE1",
"D 	c #3C3CFF",
"E 	c #3434FF",
"F 	c #2C2CFF",
"G 	c #2525FF",
"H 	c #1D1DFF",
"I 	c #1313E1",
"J 	c #0A0AD0",
"K 	c #03038E",
"L 	c #BFBDBF",
"M 	c #C7C5C7",
"N 	c #2B2BB0",
"O 	c #2C2CD0",
"P 	c #2929E1",
"Q 	c #2727FF",
"R 	c #1F1FFF",
"S 	c #1717FF",
"T 	c #0D0DE1",
"U 	c #0606D0",
"V 	c #00008E",
"W 	c #A19FA1",
"X 	c #E5E3E5",
"Y 	c #C5C3C5",
"Z 	c #1D1DB0",
"` 	c #1B1BD0",
" .	c #1616E1",
"..	c #1111FF",
"+.	c #0808E1",
"@.	c #0101D0",
"#.	c #9F9E9F",
"$.	c #E3FAE3",
"%.	c #AAF0AA",
"&.	c #A2A0A2",
"*.	c #9C9A9C",
"=.	c #7E7C7E",
"-.	c #A6A4A6",
";.	c #C1BFC1",
">.	c #0D0DB0",
",.	c #0909D0",
"'.	c #0303E1",
").	c #0000D0",
"!.	c #9E9C9E",
"~.	c #DAD8DA",
"{.	c #D0CED0",
"].	c #D6D4D6",
"^.	c #D9D6D9",
"/.	c #C7F5C7",
"(.	c #39DC39",
"_.	c #00D200",
":.	c #0B0B0B",
"<.	c #767476",
"[.	c #D6D5D6",
"}.	c #D1D0D1",
"|.	c #0000B0",
"1.	c #ABAAAB",
"2.	c #DBDADB",
"3.	c #E2E0E2",
"4.	c #CCC9CC",
"5.	c #72E672",
"6.	c #9A989A",
"7.	c #D6D6D6",
"8.	c #D8D7D8",
"9.	c #CFCECF",
"0.	c #A9A9A9",
"a.	c #D6D3D6",
"b.	c #1DD71D",
"c.	c #55E155",
"d.	c #7C7A7C",
"e.	c #D5D4D5",
"f.	c #D7D7D7",
"g.	c #C8C6C8",
"h.	c #DDDBDD",
"i.	c #E1DFE1",
"j.	c #B0AFB0",
"k.	c #D3D2D3",
"l.	c #CAC8CA",
"m.	c #CCCBCC",
"n.	c #161616",
"o.	c #ACABAC",
"p.	c #9E9B9E",
"q.	c #ADABAD",
"r.	c #A6A3A6",
"s.	c #D7D6D7",
"t.	c #A7A4A7",
"u.	c #181818",
"v.	c #303030",
"w.	c #A8A5A8",
"x.	c #F0F0F0",
"y.	c #EDEDED",
"z.	c #EAEAEA",
"A.	c #9D9D9D",
"B.	c #F9F9F9",
"C.	c #F8F8F8",
"D.	c #D5D5D5",
"E.	c #D3D3D3",
"F.	c #CECECE",
"G.	c #2C2C2C",
"H.	c #EBEBEB",
"I.	c #ECECEC",
"J.	c #8EEB8E",
"K.	c #C8C8C8",
"L.	c #C7C7C7",
"M.	c #C2C2C2",
"N.	c #959595",
"O.	c #E6E6E6",
"P.	c #E1E1E1",
"Q.	c #DFDFDF",
"R.	c #DCDCDC",
"S.	c #CACACA",
"T.	c #BDBDBD",
"U.	c #BBBBBB",
"V.	c #B7B7B7",
"W.	c #8D8D8D",
"X.	c #E2E2E2",
"Y.	c #D1D1D1",
"Z.	c #CCCCCC",
"`.	c #BFBFBF",
" +	c #B4B4B4",
".+	c #B1B1B1",
"++	c #AEAEAE",
"@+	c #868686",
"#+	c #DDDDDD",
"$+	c #CBCBCB",
"%+	c #C4C4C4",
"&+	c #A8A8A8",
"*+	c #A5A5A5",
"=+	c #A2A2A2",
"-+	c #7E7E7E",
";+	c #D8D8D8",
">+	c #C0C0C0",
",+	c #9B9B9B",
"'+	c #999999",
")+	c #767676",
"!+	c #D4D4D4",
"~+	c #B5B5B5",
"{+	c #B3B3B3",
"]+	c #ACACAC",
"^+	c #9A9A9A",
"/+	c #919191",
"(+	c #8E8E8E",
"_+	c #8A8A8A",
":+	c #6F6F6F",
"<+	c #878787",
"[+	c #777777",
"                        . + @ @ @ + .                           ",
"                        . + @ @ @ + .                           ",
"                        . + @ @ @ + .                           ",
"                        . + @ @ @ # $                           ",
"                        . + @ @ % & *                           ",
"                        . + = - ; > ,                           ",
"                        ' ) ! ~ { ] ^                           ",
"              . . . / $ ( _ : < [ } | 1 2 3 4 5                 ",
"                . 6 & 7 8 9 0 a b c d e f g h                   ",
"            i j j k l m n o p q r s t u v w x y i               ",
"            i j j z A B C D E F G H I J K L y y i               ",
"          i M j j j M N O P Q R S T U V W y y y X i             ",
"          i j j j j j Y Z `  ...+.@.V #.j y y y y i     $.%.$.  ",
"        i &.*.=.-.j j j ;.>.,.'.).V !.j j y ~.{.].^./.(._._./.  ",
"        :.<.<.<.;.[.[.[.[.}.|.).V 1.[.[.[.2.3.4.4./._._._.5.    ",
"      i <.<.<.6.j 7.8.8.8.8.9.V 0.8.8.8.8.8.X a.$.b._._.c.      ",
"      i <.<.d.x e.f.8.8.8.8.8.g.8.8.8.8.8.8.h.i.(._._.b.$.      ",
"    i <.<.<.j.j 8.k.l.m.8.8.8.8.8.8.8.m.l.k.8.5._._._.$.n.      ",
"    i <.<.<.m.m.o.p.p.m.8.8.7.q.7.8.8.m.p.p./._._._.%.4.:.      ",
"  i <.<.<.<.<.p.p.p.p.m.8.7.r.p.r.7.8.m.p.p.b._._.5.4.4.4.i     ",
"  i <.<.<.<.p.p.p.p.p.m.s.t.p.p.p.t.s.m.p.c._._.(.4.4.4.4.i     ",
"i i u.v.u.i i i p.p.p.m.w.p.p.p.p.p.w.m.%._._.b.$.i i i i i i   ",
"i x.x.x.x.x.x.i p.p.p.p.p.p.p.$./.p.p.$.b._._.%.y.y.y.z.z.A.n.  ",
"i x.B.B.C.C.C.i p.p.p.p.p.p.c._._.$.p.c._._.c.i D.D.E.F.F.A.G.  ",
"i H.y.y.I.I.I.i p.p.p.p.p.%._._._.J.%._._.b.p.i K.K.L.M.M.N.G.  ",
"i O.P.P.Q.Q.Q.R.i i i i i $._._._.b.b._._./.i S.T.T.U.V.V.W.G.  ",
"i X.f.f.7.7.7.Y.Z.Z.Z.Z.Z.Z.(._._._._._.5.Z.Z.`. + +.+++++@+n.  ",
"i #+$+$+S.S.S.%+`.`.`.`.`.`.J._._._._.b.`.`.`..+&+&+*+=+=+-+i   ",
"i ;+>+>+T.T.T.V..+.+.+.+.+.+$._._._._./..+.+.+*+,+,+'+N.N.)+n.  ",
"i !+~+~+{+{+{+]+*+*+*+*+*+*+*+5._._.c.*+*+*+*+^+/+/+(+_+_+:+G.  ",
"i <+<+<+<+<+<+@+-+-+-+-+-+-+-+-+$.$.-+-+-+-+-+[+:+:+:+:+:+:+n.  ",
"  i i i i i i i i i i i i i i i i i i i i i i i i i i i i i     "};
