/* XPM */
static char * pixmap_gtklpq_release[] = {
"32 32 209 2",
"  	c None",
". 	c #020204",
"+ 	c #D5CA9B",
"@ 	c #FEFACF",
"# 	c #FEFED7",
"$ 	c #D1CD8C",
"% 	c #CDBE8C",
"& 	c #FEFEE5",
"* 	c #FEFEDE",
"= 	c #E4E09B",
"- 	c #BBA176",
"; 	c #E7DFC7",
"> 	c #EBE4CF",
", 	c #FEFAB1",
"' 	c #B7A176",
") 	c #FEFEF4",
"! 	c #FEFEED",
"~ 	c #A58A75",
"{ 	c #A58675",
"] 	c #B8A194",
"^ 	c #DECEA4",
"/ 	c #FEFAD7",
"( 	c #FEFECF",
"_ 	c #FAF6B1",
": 	c #F6F2E5",
"< 	c #CBBB9B",
"[ 	c #9D866E",
"} 	c #9D826E",
"| 	c #A58E7D",
"1 	c #A18675",
"2 	c #997B6E",
"3 	c #BFB49B",
"4 	c #F2EFCF",
"5 	c #FEFEC8",
"6 	c #FEFEC0",
"7 	c #FEFEB9",
"8 	c #FAFAB9",
"9 	c #DCD895",
"0 	c #FAFAF4",
"a 	c #A58A7D",
"b 	c #A89284",
"c 	c #C3B0A3",
"d 	c #DACBBA",
"e 	c #C7B49B",
"f 	c #997F6E",
"g 	c #CEBF9B",
"h 	c #FEFAC8",
"i 	c #FEFEB1",
"j 	c #FEFEAA",
"k 	c #FAEFB1",
"l 	c #D8D158",
"m 	c #FEFEFC",
"n 	c #E6DFC8",
"o 	c #A18275",
"p 	c #9D7F6E",
"q 	c #B4A18C",
"r 	c #A88A8C",
"s 	c #FAF6C0",
"t 	c #BBA87D",
"u 	c #866C5E",
"v 	c #AC956E",
"w 	c #F2EFB1",
"x 	c #FAF29B",
"y 	c #A49D3A",
"z 	c #FEFADE",
"A 	c #B8A594",
"B 	c #C3AC9B",
"C 	c #C7B09B",
"D 	c #CBB8AA",
"E 	c #D6CEC1",
"F 	c #FAFADE",
"G 	c #D2C7A3",
"H 	c #927766",
"I 	c #FAFAA2",
"J 	c #747424",
"K 	c #CDBE85",
"L 	c #EFE7DE",
"M 	c #A18A6E",
"N 	c #B8A18C",
"O 	c #A89275",
"P 	c #EDE9B9",
"Q 	c #F5F5B9",
"R 	c #F6F29B",
"S 	c #F6F2CF",
"T 	c #FEFAB9",
"U 	c #DACBA3",
"V 	c #92735E",
"W 	c #DED694",
"X 	c #E0DC76",
"Y 	c #C3B8B2",
"Z 	c #A1826E",
"` 	c #9D8675",
" .	c #99826E",
"..	c #A8927D",
"+.	c #AC9984",
"@.	c #E6E3B9",
"#.	c #D2BFA3",
"$.	c #8A6F5E",
"%.	c #F1F1D9",
"&.	c #A88E7D",
"*.	c #FAF6DE",
"=.	c #EFEBC0",
"-.	c #CEC394",
";.	c #9D825E",
">.	c #DACB8C",
",.	c #BFB0A3",
"'.	c #C3B88C",
").	c #AC9584",
"!.	c #B89D84",
"~.	c #E2DBC4",
"{.	c #F1F1C4",
"].	c #F1F1BD",
"^.	c #FEFA9B",
"/.	c #B8A58C",
"(.	c #DECEA3",
"_.	c #B49275",
":.	c #C7BB9B",
"<.	c #A1865E",
"[.	c #EBE79B",
"}.	c #E3DBBC",
"|.	c #CBB48C",
"1.	c #AC9275",
"2.	c #F1EDC4",
"3.	c #F1F1B6",
"4.	c #B8A575",
"5.	c #FAF6AA",
"6.	c #FAFAC0",
"7.	c #B49984",
"8.	c #B89D7D",
"9.	c #B0A184",
"0.	c #B09975",
"a.	c #FAF2A2",
"b.	c #FEFAC0",
"c.	c #CEB89B",
"d.	c #8A6C66",
"e.	c #AC997D",
"f.	c #EBE7B1",
"g.	c #E9E299",
"h.	c #E4E067",
"i.	c #787824",
"j.	c #F2EBB9",
"k.	c #B49575",
"l.	c #BBA88C",
"m.	c #A5866E",
"n.	c #A59275",
"o.	c #BEBB51",
"p.	c #D1BE9B",
"q.	c #C3B094",
"r.	c #957766",
"s.	c #A1866E",
"t.	c #AC8E6E",
"u.	c #8E736E",
"v.	c #FEFAAA",
"w.	c #CEC38C",
"x.	c #B8A16E",
"y.	c #FEFAA2",
"z.	c #FEFEA2",
"A.	c #DACE8C",
"B.	c #BFA87D",
"C.	c #D2C38C",
"D.	c #C3B075",
"E.	c #EBE785",
"F.	c #837F2C",
"G.	c #EFE47D",
"H.	c #A88E75",
"I.	c #E0D0A5",
"J.	c #C3B48C",
"K.	c #A18A75",
"L.	c #BFB084",
"M.	c #A89266",
"N.	c #D5D167",
"O.	c #BEB342",
"P.	c #F6EB7D",
"Q.	c #C7B87D",
"R.	c #AC9266",
"S.	c #D6CB94",
"T.	c #D6C78C",
"U.	c #997F66",
"V.	c #927757",
"W.	c #C2B749",
"X.	c #E7E77D",
"Y.	c #E5DD91",
"Z.	c #B4A17D",
"`.	c #F6F694",
" +	c #FAFA94",
".+	c #F6F285",
"++	c #E0D176",
"@+	c #DED68C",
"#+	c #CBBF7D",
"$+	c #C7B875",
"%+	c #F2EF9B",
"&+	c #F6F294",
"*+	c #FEFE9B",
"=+	c #E4D567",
"-+	c #EFE794",
";+	c #FEF69B",
">+	c #BFB075",
",+	c #EEEA81",
"'+	c #FEFE94",
")+	c #000000",
"!+	c #D8D567",
"~+	c #F6E785",
"{+	c #FEFA94",
"]+	c #F6EF8C",
"^+	c #E9DF76",
"/+	c #A1A133",
"(+	c #FEEF94",
"_+	c #1A1A04",
":+	c #161604",
"                        . .                                     ",
"                        . + . .                                 ",
"                        . @ # $ . . .                           ",
"                      . % & * * = $ - . . . .                   ",
"                      . @ & ; > * & & # , % ' . . . .           ",
"                    . % ) ! ~ { ] ^ & * / # ( _ = $ - . . .     ",
"                    . : ) < [ } | 1 2 3 4 @ 5 5 6 7 8 9 $ - . . ",
"                    . 0 ) a b c d e 1 f { # & g h 7 i i j k l . ",
"                  . % m n o { { c p q } r * s t u v w w j x y . ",
"                  . z m A q c B c C D o E F ( # s G H v I j J . ",
"                . K m L M M q c c q q 1 z ( N H O P Q 7 i R .   ",
"                . & ! A a } q c c q 1 A F ( S T U V 2 W , X .   ",
"              . % ) ) & & Y Z ` q p  .& F ..~ +.@., T T T l .   ",
"              . * & #.$.3 %.%.%.d ` &.*.=.S ( -.;.V >.j T y .   ",
"            . @ # & * * ,.} N '.* & & ! ).!.G ~.{.].% j ^.J .   ",
"          . % # / /.$./.* * (.B _.N ^ * F @ :.<.$.% ].7 [..     ",
"          . # @ }.# # e $.|.# # ( (./.u 1.Y 2.2.3.4.5., l .     ",
"        . K ( 6.7. .A # # (.b 8.N ( ( ( + 9.0.[ 2.2.j a.y .     ",
"      . % 5 6.5 5 b.c.d.).5 # 5 (.8.$.e.7 7 7 f.4.g.j h.i..     ",
"      . i 8 j.k.+.l.b.b.T ..m.N 5 5 5 c.n.v e.7 7 , , o..       ",
"    . p.i i 8 T T q.r.s.^ b.7 ^ t.u.[ v., i w.4.x.y.y.y . .     ",
"  . % _ z.A.2 B.'.T T T [ V N 7 7 7 C.f p D., , j z.E.i.. . . . ",
". F.G.j j j v.w.t H. .I.i i J.O s.K.j j j L.4.M.^.^.N.. . . . . ",
"  . . O.P.5.v.z.j w Q.M R.S.i j j T.U.V.Q.j j j z.z.o.. . . .   ",
"      . . W.X.z.i j j j Y.t v - Z.j j ^.t n.v `. +.+y . . .     ",
"          . . O.++P._ , j j 5.@+#+;.$.$+%+&+@+ +*+h.J . . .     ",
"              . . . O.=+-+;+j z.z.z.I >+V.D.,+'+.+y )+)+)+      ",
"                    . . . O.!+~+j y.^.{+*+]+^+{+l J )+)+        ",
"                          . . . O.=+X.{+*+*+{+,+/+. )+          ",
"                                . . . O.!+X.(+!+J .             ",
"                                      _+:+. /+i..               ",
"                                            . .                 "};
