/* XPM */
static char * pixmap_gtklpq_stop_job[] = {
"32 32 166 2",
"  	c None",
". 	c #020204",
"+ 	c #D5CA9B",
"@ 	c #FEFACF",
"# 	c #FEFED7",
"$ 	c #D1CD8C",
"% 	c #CDBE8C",
"& 	c #FEFEE5",
"* 	c #FEFEDE",
"= 	c #E4E09B",
"- 	c #BBA176",
"; 	c #E7DFC7",
"> 	c #EBE4CF",
", 	c #FEFAB1",
"' 	c #B7A176",
") 	c #FEFEF4",
"! 	c #FEFEED",
"~ 	c #A58A75",
"{ 	c #A58675",
"] 	c #B8A194",
"^ 	c #DECEA4",
"/ 	c #FEFAD7",
"( 	c #FEFECF",
"_ 	c #FAF6B1",
": 	c #F6F2E5",
"< 	c #CBBB9B",
"[ 	c #9D866E",
"} 	c #9D826E",
"| 	c #A58E7D",
"1 	c #A18675",
"2 	c #997B6E",
"3 	c #BFB49B",
"4 	c #F2EFCF",
"5 	c #FEFEC8",
"6 	c #FEFEC0",
"7 	c #FEFEB9",
"8 	c #FAFAB9",
"9 	c #DCD895",
"0 	c #FAFAF4",
"a 	c #A58A7D",
"b 	c #A89284",
"c 	c #C3B0A3",
"d 	c #DACBBA",
"e 	c #C7B49B",
"f 	c #997F6E",
"g 	c #CEBF9B",
"h 	c #FEFAC8",
"i 	c #FEFEB1",
"j 	c #FEFEAA",
"k 	c #FAEFB1",
"l 	c #D8D158",
"m 	c #999999",
"n 	c #000000",
"o 	c #9D7F6E",
"p 	c #B4A18C",
"q 	c #A88A8C",
"r 	c #FAF6C0",
"s 	c #BBA87D",
"t 	c #866C5E",
"u 	c #AC956E",
"v 	c #F2EFB1",
"w 	c #FAF29B",
"x 	c #A49D3A",
"y 	c #FEFEFC",
"z 	c #B8A594",
"A 	c #C3AC9B",
"B 	c #CBB8AA",
"C 	c #A18275",
"D 	c #D6CEC1",
"E 	c #FAFADE",
"F 	c #D2C7A3",
"G 	c #927766",
"H 	c #FAFAA2",
"I 	c #747424",
"J 	c #EFE7DE",
"K 	c #A18A6E",
"L 	c #FEFADE",
"M 	c #B8A18C",
"N 	c #A89275",
"O 	c #EDE9B9",
"P 	c #F5F5B9",
"Q 	c #F6F29B",
"R 	c #F6F2CF",
"S 	c #FEFAB9",
"T 	c #DACBA3",
"U 	c #92735E",
"V 	c #DED694",
"W 	c #E0DC76",
"X 	c #333333",
"Y 	c #C3B8B2",
"Z 	c #A1826E",
"` 	c #9D8675",
" .	c #99826E",
"..	c #A8927D",
"+.	c #AC9984",
"@.	c #E6E3B9",
"#.	c #111111",
"$.	c #F1F1D9",
"%.	c #A88E7D",
"&.	c #EFEBC0",
"*.	c #CEC394",
"=.	c #9D825E",
"-.	c #DACB8C",
";.	c #C3B88C",
">.	c #B89D84",
",.	c #E2DBC4",
"'.	c #F1F1C4",
").	c #F1F1BD",
"!.	c #FEFA9B",
"~.	c #B49275",
"{.	c #C7BB9B",
"].	c #FF6666",
"^.	c #8A6F5E",
"/.	c #EBE79B",
"(.	c #FEFE00",
"_.	c #DECEA3",
":.	c #B8A58C",
"<.	c #F1EDC4",
"[.	c #F1F1B6",
"}.	c #B8A575",
"|.	c #FAF6AA",
"1.	c #B09975",
"2.	c #FAF2A2",
"3.	c #DDDDDD",
"4.	c #BBBBBB",
"5.	c #B89D7D",
"6.	c #AC997D",
"7.	c #EBE7B1",
"8.	c #E4E067",
"9.	c #CEB89B",
"0.	c #A59275",
"a.	c #BEBB51",
"b.	c #FEFAAA",
"c.	c #CEC38C",
"d.	c #FEFAA2",
"e.	c #D2C38C",
"f.	c #C3B075",
"g.	c #FEFEA2",
"h.	c #EBE785",
"i.	c #787824",
"j.	c #BFB084",
"k.	c #A89266",
"l.	c #D5D167",
"m.	c #997F66",
"n.	c #927757",
"o.	c #C7B87D",
"p.	c #FAFA94",
"q.	c #F6F285",
"r.	c #C7B875",
"s.	c #F2EF9B",
"t.	c #F6F294",
"u.	c #FEFE9B",
"v.	c #BFB075",
"w.	c #EEEA81",
"x.	c #FEFE94",
"y.	c #FEFA94",
"z.	c #F6EF8C",
"A.	c #E9DF76",
"B.	c #BEB342",
"C.	c #E4D567",
"D.	c #E7E77D",
"E.	c #A1A133",
"F.	c #D8D567",
"G.	c #FEEF94",
"H.	c #1A1A04",
"I.	c #161604",
"                        . .                                     ",
"                        . + . .                                 ",
"                        . @ # $ . . .                           ",
"                      . % & * * = $ - . . . .                   ",
"                      . @ & ; > * & & # , % ' . . . .           ",
"                    . % ) ! ~ { ] ^ & * / # ( _ = $ - . . .     ",
"                    . : ) < [ } | 1 2 3 4 @ 5 5 6 7 8 9 $ - . . ",
"                    . 0 ) a b c d e 1 f { # & g h 7 i i j k l . ",
"                  . % m n m n m c o p } q * r s t u v v j w x . ",
"                  . n y z p c A n m B C D E ( # r F G u H j I . ",
"                . m y J K K p c c p n 1 L ( M G N O P 7 i Q .   ",
"                . n ! z a } p c c p m z E ( R S T U 2 V , W .   ",
"              X X X X X & Y Z ` p o  .n E ..~ +.@., S S S l .   ",
"              X #.#.#.X 3 $.$.$.d ` %.m &.R ( *.=.U -.j S x .   ",
"            X #.#.n #.#.X } M ;.* & & ! n >.F ,.'.).% j !.I .   ",
"        X X #.n n n #.n #.X X A ~.M ^ * m @ {.].^.% ).7 /..   (.",
"      X #.#.n n n n n n n #.#.X ( _.:.t n Y <.<.[.}.|.(.l . ].  ",
"    X #.n n n n n n n n n n n #.X ( ( ( + m 1.[ (.<.j 2.x .     ",
"    X #.n n n n n n 3.4.m n n #.X 5.^.6.7 n 7 7.}.].j 8.(..     ",
"  X #.n n n n n n n n 3.4.m n n #.X 5 9.0.u m 7 7 , , a..       ",
"  X #.n n n n n n n n n n n n n #.X [ b., i c.n m n d.].. (.  ].",
"  X #.n n n n n n n n n 3.4.m n #.X e.f o f., , j g.h.i.. . . . ",
". X #.n n n n n n n n n 3.4.m n #.X j j j j.}.k.(.!.l.. (.. . . ",
"  X #.n n n n n n n n n 3.4.m n #.X m.n.o.j j j g.g.].. . ]..   ",
"  X #.n n n n n n n n 3.4.m n n #.X j !.s 0.u ].p.q.x . . .     ",
"  X #.n n n n n n n n 3.4.m n n #.X ^.r.s.t.(.p.u.8.(.. . .   (.",
"    X #.n n n n n n 3.4.m n n #.X g.H v.n.f.w.x.q.x n n n       ",
"    X #.n n n n n n n n n n n #.X d.!.y.u.z.A.y.l I ].n         ",
"      X #.#.n n n n n n n #.#.X B.C.D.y.u.u.y.w.E.. n           ",
"        X X #.#.#.#.#.#.#.X X   . . . B.F.D.G.F.I .             ",
"            X X X X X X X             H.I.. E.i..               ",
"                                            . .                 "};
