/* XPM */
static char * pixmap_gtklpq_start_printer[] = {
"32 32 13 1",
" 	c None",
".	c #000000",
"+	c #FFFFFF",
"@	c #00FF00",
"#	c #585858",
"$	c #808080",
"%	c #DCDCDC",
"&	c #C0C0C0",
"*	c #009600",
"=	c #808000",
"-	c #FFFF00",
";	c #FF0000",
">	c #A0A0A4",
"                                ",
"                                ",
"           ...                  ",
"          .+@@...               ",
"         .++@@@@@...            ",
"         .##+++@@@@@...         ",
"        .######+++@@@@@...      ",
"       .#$%%######+++@@@@@...   ",
"      .#$+++&&&######+++@@@@@...",
"     .#$+++++++&&&######+++@@@@.",
"    .#$+++&&&++++.##*###%==+++*.",
"   .#$++++++++++.##****+%===%**.",
"  .#$+++&&&++++.##****+@@@@=%**.",
" .#$$$%+++++++.##****+@@--@@+**.",
".++&&&$$$%+++.##****+@@@@@@+***.",
".@@+++&&&$$$.##****+@@;;@@+****.",
".@@@@@+++&&&******+@@@@@@+*****.",
".@>@@@@@@+++&&&&*+@@@@@@+******.",
".@>>>>@@@@@@+++$+@@@@@@+*******.",
".@>+++>>>@@@@@@+++@@@@+********.",
".@@@@@+++>>>@@@@@@++++*********.",
".@>@@@@@@+++>>>@@@@@@*********. ",
".@>>>>@@@@@@+++>>>@@@********.  ",
".@>+++>>>@@@@@@>++>>@*******.   ",
".@@@@@+++>>>@@@>@@++@******.    ",
"...@@@@@@+++>>>>@@@@@*****.     ",
"   ...@@@@@@+++>@@@@@****.      ",
"      ...@@@@@@>@@@@@***.       ",
"         ...@@@@@@@@@**.        ",
"            ...@@@@@@*.         ",
"               ...@@@.          ",
"                  ...           "};
