/* XPM */
static char * pixmap_gtklpq_reject_job[] = {
"32 32 204 2",
"  	c None",
". 	c #5757B0",
"+ 	c #7070E1",
"@ 	c #7F7FFF",
"# 	c #6E6EE1",
"$ 	c #5151B0",
"% 	c #7777FF",
"& 	c #6262E1",
"* 	c #4747B0",
"= 	c #7979FF",
"- 	c #7171FF",
"; 	c #6969FF",
"> 	c #5656E1",
", 	c #3D3DB0",
"' 	c #5555B0",
") 	c #6565E1",
"! 	c #6B6BFF",
"~ 	c #6363FF",
"{ 	c #5B5BFF",
"] 	c #4A4AE1",
"^ 	c #3434B0",
"/ 	c #5656B0",
"( 	c #5959D0",
"_ 	c #5959E1",
": 	c #5D5DFF",
"< 	c #5555FF",
"[ 	c #4E4EFF",
"} 	c #3E3EE1",
"| 	c #3333D0",
"1 	c #2626B0",
"2 	c #1F1FB0",
"3 	c #1B1BB0",
"4 	c #1515B0",
"5 	c #1010B0",
"6 	c #6161D0",
"7 	c #5B5BE1",
"8 	c #5454E1",
"9 	c #5757FF",
"0 	c #5050FF",
"a 	c #4848FF",
"b 	c #4040FF",
"c 	c #3838FF",
"d 	c #2A2AE1",
"e 	c #2424E1",
"f 	c #1D1DE1",
"g 	c #1414D0",
"h 	c #09098E",
"i 	c #000000",
"j 	c #CBC9CB",
"k 	c #4949B0",
"l 	c #5050D0",
"m 	c #4F4FE1",
"n 	c #5252FF",
"o 	c #4A4AFF",
"p 	c #4242FF",
"q 	c #3A3AFF",
"r 	c #3232FF",
"s 	c #2A2AFF",
"t 	c #2323FF",
"u 	c #1818E1",
"v 	c #1010D0",
"w 	c #06068E",
"x 	c #BFBEBF",
"y 	c #E6E5E6",
"z 	c #C9C7C9",
"A 	c #3A3AB0",
"B 	c #3E3ED0",
"C 	c #3C3CE1",
"D 	c #3C3CFF",
"E 	c #3434FF",
"F 	c #2C2CFF",
"G 	c #2525FF",
"H 	c #1D1DFF",
"I 	c #1313E1",
"J 	c #0A0AD0",
"K 	c #03038E",
"L 	c #BFBDBF",
"M 	c #C7C5C7",
"N 	c #2B2BB0",
"O 	c #2C2CD0",
"P 	c #2929E1",
"Q 	c #2727FF",
"R 	c #1F1FFF",
"S 	c #1717FF",
"T 	c #0D0DE1",
"U 	c #0606D0",
"V 	c #00008E",
"W 	c #A19FA1",
"X 	c #E5E3E5",
"Y 	c #C5C3C5",
"Z 	c #1D1DB0",
"` 	c #1B1BD0",
" .	c #1616E1",
"..	c #1111FF",
"+.	c #0808E1",
"@.	c #0101D0",
"#.	c #9F9E9F",
"$.	c #A2A0A2",
"%.	c #9C9A9C",
"&.	c #7E7C7E",
"*.	c #A6A4A6",
"=.	c #C1BFC1",
"-.	c #0D0DB0",
";.	c #0909D0",
">.	c #0303E1",
",.	c #0000D0",
"'.	c #9E9C9E",
").	c #DAD8DA",
"!.	c #D0CED0",
"~.	c #D6D4D6",
"{.	c #D9D6D9",
"].	c #0B0B0B",
"^.	c #767476",
"/.	c #D6D5D6",
"(.	c #D1D0D1",
"_.	c #FFFFFF",
":.	c #F0AAAA",
"<.	c #E15555",
"[.	c #ABAAAB",
"}.	c #DBDADB",
"|.	c #E2E0E2",
"1.	c #CCC9CC",
"2.	c #F5C7C7",
"3.	c #9A989A",
"4.	c #D6D6D6",
"5.	c #D8D7D8",
"6.	c #FAE3E3",
"7.	c #D20000",
"8.	c #D6D3D6",
"9.	c #D71D1D",
"0.	c #7C7A7C",
"a.	c #D5D4D5",
"b.	c #D7D7D7",
"c.	c #DDDBDD",
"d.	c #E1DFE1",
"e.	c #CECCCE",
"f.	c #B0AFB0",
"g.	c #D3D2D3",
"h.	c #CAC8CA",
"i.	c #CCCBCC",
"j.	c #ACABAC",
"k.	c #9E9B9E",
"l.	c #ADABAD",
"m.	c #CCCACC",
"n.	c #E2DFE2",
"o.	c #A6A3A6",
"p.	c #E67272",
"q.	c #D7D6D7",
"r.	c #A7A4A7",
"s.	c #181818",
"t.	c #303030",
"u.	c #A8A5A8",
"v.	c #F0F0F0",
"w.	c #DC3939",
"x.	c #EDEDED",
"y.	c #EAEAEA",
"z.	c #9D9D9D",
"A.	c #161616",
"B.	c #F9F9F9",
"C.	c #F8F8F8",
"D.	c #D3D3D3",
"E.	c #CECECE",
"F.	c #2C2C2C",
"G.	c #EBEBEB",
"H.	c #ECECEC",
"I.	c #C2C2C2",
"J.	c #959595",
"K.	c #E6E6E6",
"L.	c #E1E1E1",
"M.	c #DFDFDF",
"N.	c #DCDCDC",
"O.	c #CACACA",
"P.	c #EB8E8E",
"Q.	c #B7B7B7",
"R.	c #8D8D8D",
"S.	c #E2E2E2",
"T.	c #D1D1D1",
"U.	c #CCCCCC",
"V.	c #BFBFBF",
"W.	c #B4B4B4",
"X.	c #868686",
"Y.	c #DDDDDD",
"Z.	c #CBCBCB",
"`.	c #C4C4C4",
" +	c #B1B1B1",
".+	c #A8A8A8",
"++	c #D8D8D8",
"@+	c #C0C0C0",
"#+	c #BDBDBD",
"$+	c #A5A5A5",
"%+	c #9B9B9B",
"&+	c #999999",
"*+	c #D4D4D4",
"=+	c #B5B5B5",
"-+	c #B3B3B3",
";+	c #ACACAC",
">+	c #9A9A9A",
",+	c #919191",
"'+	c #8E8E8E",
")+	c #8A8A8A",
"!+	c #878787",
"~+	c #7E7E7E",
"{+	c #777777",
"]+	c #6F6F6F",
"                        . + @ @ @ + .                           ",
"                        . + @ @ @ + .                           ",
"                        . + @ @ @ + .                           ",
"                        . + @ @ @ # $                           ",
"                        . + @ @ % & *                           ",
"                        . + = - ; > ,                           ",
"                        ' ) ! ~ { ] ^                           ",
"              . . . / $ ( _ : < [ } | 1 2 3 4 5                 ",
"                . 6 & 7 8 9 0 a b c d e f g h                   ",
"            i j j k l m n o p q r s t u v w x y i               ",
"            i j j z A B C D E F G H I J K L y y i               ",
"          i M j j j M N O P Q R S T U V W y y y X i             ",
"          i j j j j j Y Z `  ...+.@.V #.j y y y y i             ",
"        i $.%.&.*.j j j =.-.;.>.,.V '.j j y ).!.~.{.i           ",
"        ].^.^.^.=././././.(._.:.<.[./././.}.|.1.1.1.i     <.2.  ",
"      i ^.^.^.3.j 4.5.5.5.5.6.7.7.<.5.5.5.5.X 8.1.1.1.i <.7.9.  ",
"      i ^.^.0.x a.b.5.5.5.5.5.:.7.7.<.5.5.5.c.d.e.1.1.<.7.7.:.  ",
"    i ^.^.^.f.j 5.g.h.i.5.5.5.5.:.7.7.<.h.g.5.X ).1.<.7.7.:.    ",
"    i ^.^.^.i.i.j.k.k.i.5.5.4.l.4.:.7.7.<.k.l.m.n.<.7.7.:.      ",
"  i ^.^.^.^.^.k.k.k.k.i.5.4.o.k.o.4.p.7.7.<.k.k.<.7.7.:.1.i     ",
"  i ^.^.^.^.k.k.k.k.k.i.q.r.k.k.k.r.q.<.7.7.<.<.7.7.:.1.1.i     ",
"i i s.t.s.i i i k.k.k.i.u.k.k.k.k.k.u.i.<.7.7.7.7.:.i i i i i   ",
"i v.v.v.v.v.v.i k.k.k.k.k.k.k.k.k.k.k.k.k.9.7.7.w.x.x.y.y.z.A.  ",
"i v.B.B.C.C.C.i k.k.k.k.k.k.k.k.k.k.k.k.<.7.7.7.7.<.D.E.E.z.F.  ",
"i G.x.x.H.H.H.i k.k.k.k.k.k.k.k.k.k.k.<.7.7.:.:.7.7.<.I.I.J.F.  ",
"i K.L.L.M.M.M.N.i i i i i i i i i i <.7.7.:.i O.:.7.7.P.Q.R.F.  ",
"i S.b.b.4.4.4.T.U.U.U.U.U.U.U.U.U.<.7.7.:.U.U.V.W.:.7.7.:.X.A.  ",
"i Y.Z.Z.O.O.O.`.V.V.V.V.V.V.V.V.<.7.7.:.V.V.V. +.+.+p.7.7.:.i   ",
"i ++@+@+#+#+#+Q. + + + + + + +<.7.7.:. + + + +$+%+%+&+<.7.7.:.  ",
"i *+=+=+-+-+-+;+$+$+$+$+$+$+2.7.7.:.$+$+$+$+$+>+,+,+'+)+<.7.9.  ",
"i !+!+!+!+!+!+X.~+~+~+~+~+~+_.:.:.~+~+~+~+~+~+{+]+]+]+]+]+p.6.  ",
"  i i i i i i i i i i i i i i i i i i i i i i i i i i i i i     "};
